<svg xmlns="http://www.w3.org/2000/svg" xmlns:xlink="http://www.w3.org/1999/xlink" xmlns:lucid="lucid" width="2162.5" height="2241.5"><g transform="translate(820.5 3041.00005)" lucid:page-tab-id="0_0"><path d="M-1000-3500h2500v3000h-2500z" fill="#fff"/><path d="M-460-3013.5a6 6 0 0 1 6-6h148a6 6 0 0 1 6 6v68a6 6 0 0 1-6 6h-148a6 6 0 0 1-6-6z" stroke="#3a414a" fill="#fff"/><use xlink:href="#a" transform="matrix(1,0,0,1,-448,-3007.50005) translate(25.46913580246914 21.27777777777778)"/><use xlink:href="#b" transform="matrix(1,0,0,1,-448,-3007.50005) translate(32.81481481481482 47.94444444444444)"/><path d="M-220-3013.5a6 6 0 0 1 6-6h148a6 6 0 0 1 6 6v68a6 6 0 0 1-6 6h-148a6 6 0 0 1-6-6z" stroke="#3a414a" fill="#fff"/><use xlink:href="#a" transform="matrix(1,0,0,1,-208,-3007.50005) translate(25.46913580246914 21.27777777777778)"/><use xlink:href="#c" transform="matrix(1,0,0,1,-208,-3007.50005) translate(19.234567901234563 47.94444444444444)"/><path d="M20-3013.5a6 6 0 0 1 6-6h148a6 6 0 0 1 6 6v68a6 6 0 0 1-6 6H26a6 6 0 0 1-6-6z" stroke="#3a414a" fill="#fff"/><use xlink:href="#a" transform="matrix(1,0,0,1,32,-3007.50005) translate(25.46913580246914 21.27777777777778)"/><use xlink:href="#d" transform="matrix(1,0,0,1,32,-3007.50005) translate(13.061728395061735 47.94444444444444)"/><path d="M260-3013.5a6 6 0 0 1 6-6h148a6 6 0 0 1 6 6v68a6 6 0 0 1-6 6H266a6 6 0 0 1-6-6z" stroke="#3a414a" fill="#fff"/><use xlink:href="#a" transform="matrix(1,0,0,1,272,-3007.50005) translate(25.46913580246914 21.27777777777778)"/><use xlink:href="#e" transform="matrix(1,0,0,1,272,-3007.50005) translate(17.41358024691359 47.94444444444444)"/><path d="M-4.5-2730.5H-374a6 6 0 0 1-6-6v-186.12M-4.52-2730.5h.5" stroke="#3a414a" fill="none"/><path d="M-380-2937.38l4.63 14.26h-9.26z" stroke="#3a414a" fill="#3a414a"/><path d="M-4-2731v-97.75a6 6 0 0 0-6-6h-123a6 6 0 0 1-6-6v-81.87M-4-2731v.5" stroke="#3a414a" fill="none"/><path d="M-139-2937.38l4.63 14.26h-9.26z" stroke="#3a414a" fill="#3a414a"/><path d="M-4-2731v-97.75a6 6 0 0 1 6-6h92a6 6 0 0 0 6-6v-81.87M-4-2731v.5" stroke="#3a414a" fill="none"/><path d="M100-2937.38l4.64 14.26h-9.28z" stroke="#3a414a" fill="#3a414a"/><path d="M-3.5-2730.5H334a6 6 0 0 0 6-6v-186.12M-3.5-2730.5H-4" stroke="#3a414a" fill="none"/><path d="M340-2937.38l4.63 14.26h-9.26z" stroke="#3a414a" fill="#3a414a"/><path d="M-720-3013.5a6 6 0 0 1 6-6h68a6 6 0 0 1 6 6v687.5a6 6 0 0 1-6 6h-68a6 6 0 0 1-6-6z" fill="none"/><path d="M-640-2320c-5.52 0-10-4.48-10-10v-329.75c0-5.52-4.48-10-10-10 5.52 0 10-4.48 10-10v-329.75c0-5.52 4.48-10 10-10" stroke="#3a414a" stroke-width="3" fill="none"/><use xlink:href="#f" transform="matrix(1,0,0,1,-715,-3014.50005) translate(-16.728395061728392 322.77777777777777)"/><use xlink:href="#g" transform="matrix(1,0,0,1,-715,-3014.50005) translate(-37.53086419753086 349.44444444444446)"/><use xlink:href="#h" transform="matrix(1,0,0,1,-715,-3014.50005) translate(-35.24691358024691 376.1111111111111)"/><path d="M0-1184a6 6 0 0 1 6-6h28a6 6 0 0 1 6 6v108a6 6 0 0 1-6 6H6a6 6 0 0 1-6-6z" stroke="#3a414a" fill="#fe7070"/><use xlink:href="#i" transform="matrix(-1.8369701987210297e-16,-1,1,-1.8369701987210297e-16,12,-1082) translate(20.28395061728395 17.77777777777778)"/><path d="M-360-1124a6 6 0 0 1 6-6h28a6 6 0 0 1 6 6v48a6 6 0 0 1-6 6h-28a6 6 0 0 1-6-6z" stroke="#3a414a" fill="#9391ff"/><use xlink:href="#j" transform="matrix(-1.8369701987210297e-16,-1,1,-1.8369701987210297e-16,-348,-1082) translate(-8.922839506172842 17.77777777777778)"/><path d="M-320-1184a6 6 0 0 1 6-6H-6a6 6 0 0 1 6 6v108a6 6 0 0 1-6 6h-308a6 6 0 0 1-6-6z" stroke="#3a414a" fill="#54c45e"/><use xlink:href="#k" transform="matrix(-1.8369701987210297e-16,-1,1,-1.8369701987210297e-16,-308,-1082) translate(14.225308641975303 151.90277777777777)"/><path d="M-400-1184a6 6 0 0 1 6-6h28a6 6 0 0 1 6 6v108a6 6 0 0 1-6 6h-28a6 6 0 0 1-6-6z" stroke="#3a414a" fill="#fbf0ff"/><use xlink:href="#l" transform="matrix(-1.8369701987210297e-16,-1,1,-1.8369701987210297e-16,-388,-1082) translate(30.160493827160494 17.77777777777778)"/><path d="M39.5-1040H16.38M39.5-1040h.5" stroke="#3a414a" fill="none"/><path d="M1.62-1040l14.26-4.63v9.27z" stroke="#3a414a" fill="#3a414a"/><path d="M-399.5-1030h383.12M-399.5-1030h-.5" stroke="#3a414a" fill="none"/><path d="M-1.62-1030l-14.26 4.63v-9.27z" stroke="#3a414a" fill="#3a414a"/><path d="M1100-1882.72a6 6 0 0 1 6-6h28a6 6 0 0 1 6 6V-1698a6 6 0 0 1-6 6h-28a6 6 0 0 1-6-6z" stroke="#3a414a" fill="#fe7070"/><use xlink:href="#i" transform="matrix(-1.8369701987210297e-16,-1,1,-1.8369701987210297e-16,1112,-1704) translate(58.78395061728395 17.77777777777778)"/><path d="M740-1784.36a6 6 0 0 1 6-6h28a6 6 0 0 1 6 6v86.36a6 6 0 0 1-6 6h-28a6 6 0 0 1-6-6z" stroke="#3a414a" fill="#9391ff"/><use xlink:href="#j" transform="matrix(-1.8369701987210297e-16,-1,1,-1.8369701987210297e-16,752.0000000000002,-1704) translate(10.577160493827158 17.77777777777778)"/><path d="M780-1882.72a6 6 0 0 1 6-6h308a6 6 0 0 1 6 6V-1698a6 6 0 0 1-6 6H786a6 6 0 0 1-6-6z" stroke="#3a414a" fill="#54c45e"/><use xlink:href="#k" transform="matrix(-1.8369701987210297e-16,-1,1,-1.8369701987210297e-16,792,-1704) translate(52.7253086419753 151.90277777777777)"/><path d="M-420-1884a6 6 0 0 1 6-6h28a6 6 0 0 1 6 6v188a6 6 0 0 1-6 6h-28a6 6 0 0 1-6-6z" stroke="#3a414a" fill="#fbf0ff"/><use xlink:href="#l" transform="matrix(-1.8369701987210297e-16,-1,1,-1.8369701987210297e-16,-408,-1702) translate(70.1604938271605 17.77777777777778)"/><path d="M1299.5-1470h-183.12M1299.5-1470h.5" stroke="#3a414a" fill="none"/><path d="M1101.62-1470l14.26-4.63v9.27z" stroke="#3a414a" fill="#3a414a"/><path d="M-419.5-1460h1503.12M-419.5-1460h-.5" stroke="#3a414a" fill="none"/><path d="M1098.38-1460l-14.26 4.63v-9.27z" stroke="#3a414a" fill="#3a414a"/><path d="M1140-1882.72a6 6 0 0 1 6-6h28a6 6 0 0 1 6 6V-1698a6 6 0 0 1-6 6h-28a6 6 0 0 1-6-6z" stroke="#3a414a" fill="#fe7070"/><use xlink:href="#i" transform="matrix(-1.8369701987210297e-16,-1,1,-1.8369701987210297e-16,1152,-1704) translate(58.78395061728395 17.77777777777778)"/><path d="M1180-1882.72a6 6 0 0 1 6-6h28a6 6 0 0 1 6 6V-1698a6 6 0 0 1-6 6h-28a6 6 0 0 1-6-6z" stroke="#3a414a" fill="#fe7070"/><use xlink:href="#i" transform="matrix(-1.8369701987210297e-16,-1,1,-1.8369701987210297e-16,1192,-1704) translate(58.78395061728395 17.77777777777778)"/><path d="M1220-1882.72a6 6 0 0 1 6-6h28a6 6 0 0 1 6 6V-1698a6 6 0 0 1-6 6h-28a6 6 0 0 1-6-6z" stroke="#3a414a" fill="#fe7070"/><use xlink:href="#i" transform="matrix(-1.8369701987210297e-16,-1,1,-1.8369701987210297e-16,1232,-1704) translate(58.78395061728395 17.77777777777778)"/><path d="M420-1882.72a6 6 0 0 1 6-6h308a6 6 0 0 1 6 6V-1698a6 6 0 0 1-6 6H426a6 6 0 0 1-6-6z" stroke="#3a414a" fill="#54c45e"/><use xlink:href="#k" transform="matrix(-1.8369701987210297e-16,-1,1,-1.8369701987210297e-16,432.0000000000002,-1704) translate(52.7253086419753 151.90277777777777)"/><path d="M60-1882.72a6 6 0 0 1 6-6h308a6 6 0 0 1 6 6V-1698a6 6 0 0 1-6 6H66a6 6 0 0 1-6-6z" stroke="#3a414a" fill="#54c45e"/><use xlink:href="#k" transform="matrix(-1.8369701987210297e-16,-1,1,-1.8369701987210297e-16,72,-1703.9999999999998) translate(52.7253086419753 151.90277777777777)"/><path d="M380-1784.36a6 6 0 0 1 6-6h28a6 6 0 0 1 6 6v86.36a6 6 0 0 1-6 6h-28a6 6 0 0 1-6-6z" stroke="#3a414a" fill="#9391ff"/><use xlink:href="#j" transform="matrix(-1.8369701987210297e-16,-1,1,-1.8369701987210297e-16,392,-1704) translate(10.577160493827158 17.77777777777778)"/><path d="M20-1824a6 6 0 0 1 6-6h28a6 6 0 0 1 6 6v128a6 6 0 0 1-6 6H26a6 6 0 0 1-6-6z" stroke="#3a414a" fill="#9391ff"/><use xlink:href="#j" transform="matrix(-1.8369701987210297e-16,-1,1,-1.8369701987210297e-16,32,-1702) translate(31.077160493827158 17.77777777777778)"/><path d="M-300-1884a6 6 0 0 1 6-6H14a6 6 0 0 1 6 6v188a6 6 0 0 1-6 6h-308a6 6 0 0 1-6-6z" stroke="#3a414a" fill="#54c45e"/><use xlink:href="#k" transform="matrix(-1.8369701987210297e-16,-1,1,-1.8369701987210297e-16,-288,-1701.9999999999998) translate(54.2253086419753 151.90277777777777)"/><path d="M-340-1844a6 6 0 0 1 6-6h28a6 6 0 0 1 6 6v148a6 6 0 0 1-6 6h-28a6 6 0 0 1-6-6z" stroke="#3a414a" fill="#9391ff"/><use xlink:href="#j" transform="matrix(-1.8369701987210297e-16,-1,1,-1.8369701987210297e-16,-328,-1702) translate(41.07716049382716 17.77777777777778)"/><path d="M-380-1844a6 6 0 0 1 6-6h28a6 6 0 0 1 6 6v148a6 6 0 0 1-6 6h-28a6 6 0 0 1-6-6z" stroke="#3a414a" fill="#fcfcca"/><use xlink:href="#m" transform="matrix(-1.8369701987210297e-16,-1,1,-1.8369701987210297e-16,-368,-1702) translate(19.617283950617278 17.77777777777778)"/><use xlink:href="#n" transform="matrix(-1.8369701987210297e-16,-1,1,-1.8369701987210297e-16,-368,-1702) translate(62.53703703703703 17.77777777777778)"/><path d="M1260-1884a6 6 0 0 1 6-6h28a6 6 0 0 1 6 6v182.72a6 6 0 0 1-6 6h-28a6 6 0 0 1-6-6z" stroke="#3a414a" fill="#fcfcca"/><use xlink:href="#m" transform="matrix(-1.8369701987210297e-16,-1,1,-1.8369701987210297e-16,1272,-1707.27868852459) translate(36.324074074074076 17.77777777777778)"/><use xlink:href="#o" transform="matrix(-1.8369701987210297e-16,-1,1,-1.8369701987210297e-16,1272,-1707.27868852459) translate(79.24382716049382 17.77777777777778)"/><g fill="none"><path d="M-334-2010a6 6 0 0 1-6-6v-68a6 6 0 0 1 6-6H14a6 6 0 0 1 6 6v68a6 6 0 0 1-6 6z"/><path d="M20-2010c0-5.52-4.48-10-10-10h-160c-5.52 0-10-4.48-10-10 0 5.52-4.48 10-10 10h-160c-5.52 0-10 4.48-10 10" stroke="#3a414a" stroke-width="3"/></g><path d="M1280-1891v-33.5a6 6 0 0 0-6-6H-354a6 6 0 0 0-6 6v57.62" stroke="#3a414a" fill="none"/><path d="M1280.5-1890.5h-1v-.5h1z" stroke="#3a414a" stroke-width=".05" fill="#3a414a"/><path d="M-360-1852.12l-4.63-14.26h9.26z" stroke="#3a414a" fill="#3a414a"/><path d="M1240-1691v155a6 6 0 0 1-6 6H-314a6 6 0 0 1-6-6v-137.12" stroke="#3a414a" fill="none"/><path d="M1240.5-1691h-1v-.5h1z" stroke="#3a414a" stroke-width=".05" fill="#3a414a"/><path d="M-320-1687.88l4.63 14.26h-9.26z" stroke="#3a414a" fill="#3a414a"/><path d="M1240-1691v155a6 6 0 0 1-6 6H-134a6 6 0 0 1-6-6v-137.12" stroke="#3a414a" fill="none"/><path d="M1240.5-1691h-1v-.5h1z" stroke="#3a414a" stroke-width=".05" fill="#3a414a"/><path d="M-140-1687.88l4.63 14.26h-9.26z" stroke="#3a414a" fill="#3a414a"/><path d="M1200-1691v135a6 6 0 0 1-6 6H46a6 6 0 0 1-6-6v-117.12" stroke="#3a414a" fill="none"/><path d="M1200.5-1691h-1v-.5h1z" stroke="#3a414a" stroke-width=".05" fill="#3a414a"/><path d="M40-1687.88l4.63 14.26h-9.27z" stroke="#3a414a" fill="#3a414a"/><path d="M1200-1691v135a6 6 0 0 1-6 6H226a6 6 0 0 1-6-6v-119.12" stroke="#3a414a" fill="none"/><path d="M1200.5-1691h-1v-.5h1z" stroke="#3a414a" stroke-width=".05" fill="#3a414a"/><path d="M220-1689.88l4.63 14.26h-9.26z" stroke="#3a414a" fill="#3a414a"/><path d="M1160-1691v112.56a6 6 0 0 1-6 6H406a6 6 0 0 1-6-6v-96.68" stroke="#3a414a" fill="none"/><path d="M1160.5-1691h-1v-.5h1z" stroke="#3a414a" stroke-width=".05" fill="#3a414a"/><path d="M400-1689.88l4.63 14.26h-9.26z" stroke="#3a414a" fill="#3a414a"/><path d="M1160-1691v112.56a6 6 0 0 1-6 6H586a6 6 0 0 1-6-6v-96.68" stroke="#3a414a" fill="none"/><path d="M1160.5-1691h-1v-.5h1z" stroke="#3a414a" stroke-width=".05" fill="#3a414a"/><path d="M580-1689.88l4.63 14.26h-9.26z" stroke="#3a414a" fill="#3a414a"/><path d="M1120-1691v75a6 6 0 0 1-6 6H766a6 6 0 0 1-6-6v-59.12" stroke="#3a414a" fill="none"/><path d="M1120.5-1691h-1v-.5h1z" stroke="#3a414a" stroke-width=".05" fill="#3a414a"/><path d="M760-1689.88l4.63 14.26h-9.26z" stroke="#3a414a" fill="#3a414a"/><path d="M1120-1691v75a6 6 0 0 1-6 6H946a6 6 0 0 1-6-6v-59.12" stroke="#3a414a" fill="none"/><path d="M1120.5-1691h-1v-.5h1z" stroke="#3a414a" stroke-width=".05" fill="#3a414a"/><path d="M940-1689.88l4.63 14.26h-9.26z" stroke="#3a414a" fill="#3a414a"/><path d="M-400-1891v-63a6 6 0 0 1 6-6h1728a6 6 0 0 1 6 6v59.67a6 6 0 0 1-6 6h-18.8" stroke="#3a414a" fill="none"/><path d="M-399.5-1890.5h-1v-.5h1z" stroke="#3a414a" stroke-width=".05" fill="#3a414a"/><path d="M1300.45-1888.33l14.26-4.63v9.27z" stroke="#3a414a" fill="#3a414a"/><path d="M-240-2204a6 6 0 0 1 6-6h148a6 6 0 0 1 6 6v148a6 6 0 0 1-6 6h-148a6 6 0 0 1-6-6z" stroke="#3a414a" fill="#fff"/><use xlink:href="#p" transform="matrix(1,0,0,1,-235,-2205) translate(19.506172839506178 64.65277777777777)"/><use xlink:href="#q" transform="matrix(1,0,0,1,-235,-2205) translate(76.23456790123457 64.65277777777777)"/><use xlink:href="#r" transform="matrix(1,0,0,1,-235,-2205) translate(14.095679012345677 91.31944444444446)"/><use xlink:href="#s" transform="matrix(1,0,0,1,-235,-2205) translate(71.76851851851852 91.31944444444446)"/><use xlink:href="#t" transform="matrix(1,0,0,1,-235,-2205) translate(103.86728395061729 91.31944444444446)"/><g fill="none"><path d="M1226-2030a6 6 0 0 1-6-6v-68a6 6 0 0 1 6-6h28a6 6 0 0 1 6 6v68a6 6 0 0 1-6 6z"/><path d="M1260-2030c0-5.52-4.48-10-10-10s-10-4.48-10-10c0 5.52-4.48 10-10 10s-10 4.48-10 10" stroke="#3a414a" stroke-width="3"/></g><path d="M1160-2224a6 6 0 0 1 6-6h148a6 6 0 0 1 6 6v148a6 6 0 0 1-6 6h-148a6 6 0 0 1-6-6z" stroke="#3a414a" fill="#fff"/><use xlink:href="#p" transform="matrix(1,0,0,1,1165,-2225) translate(19.506172839506178 41.21527777777778)"/><use xlink:href="#q" transform="matrix(1,0,0,1,1165,-2225) translate(76.23456790123457 41.21527777777778)"/><use xlink:href="#u" transform="matrix(1,0,0,1,1165,-2225) translate(47.28395061728395 67.88194444444446)"/><use xlink:href="#v" transform="matrix(1,0,0,1,1165,-2225) translate(37.55246913580247 94.54861111111111)"/><use xlink:href="#w" transform="matrix(1,0,0,1,1165,-2225) translate(95.22530864197532 94.54861111111111)"/><use xlink:href="#x" transform="matrix(1,0,0,1,1165,-2225) translate(28.117283950617278 121.2152777777778)"/><path d="M-560-1494a6 6 0 0 1 6-6h68a6 6 0 0 1 6 6v58a6 6 0 0 1-6 6h-68a6 6 0 0 1-6-6z" fill="none"/><path d="M-480-1430c-5.52 0-10-4.48-10-10v-15c0-5.52-4.48-10-10-10 5.52 0 10-4.48 10-10v-15c0-5.52 4.48-10 10-10" stroke="#3a414a" stroke-width="3" fill="none"/><use xlink:href="#y" transform="matrix(1,0,0,1,-555,-1495) translate(-13.02469135802469 21.111111111111114)"/><use xlink:href="#z" transform="matrix(1,0,0,1,-555,-1495) translate(-47.407407407407405 47.777777777777786)"/><g fill="none"><path d="M-374-2050a6 6 0 0 1-6-6v-68a6 6 0 0 1 6-6h28a6 6 0 0 1 6 6v68a6 6 0 0 1-6 6z"/><path d="M-340-2050c0-5.52-4.48-10-10-10s-10-4.48-10-10c0 5.52-4.48 10-10 10s-10 4.48-10 10" stroke="#3a414a" stroke-width="3"/></g><path d="M-440-2204a6 6 0 0 1 6-6h148a6 6 0 0 1 6 6v108a6 6 0 0 1-6 6h-148a6 6 0 0 1-6-6z" stroke="#3a414a" fill="#fff"/><use xlink:href="#A" transform="matrix(1,0,0,1,-435,-2205) translate(7.191358024691368 45.27777777777778)"/><use xlink:href="#B" transform="matrix(1,0,0,1,-435,-2205) translate(68.85802469135803 45.27777777777778)"/><use xlink:href="#C" transform="matrix(1,0,0,1,-435,-2205) translate(93.5493827160494 45.27777777777778)"/><use xlink:href="#D" transform="matrix(1,0,0,1,-435,-2205) translate(65.8858024691358 71.94444444444446)"/><g fill="none"><path d="M26-2010a6 6 0 0 1-6-6v-68a6 6 0 0 1 6-6h348a6 6 0 0 1 6 6v68a6 6 0 0 1-6 6z"/><path d="M380-2010c0-5.52-4.48-10-10-10H210c-5.52 0-10-4.48-10-10 0 5.52-4.48 10-10 10H30c-5.52 0-10 4.48-10 10" stroke="#3a414a" stroke-width="3"/></g><g fill="none"><path d="M386-2010a6 6 0 0 1-6-6v-68a6 6 0 0 1 6-6h348a6 6 0 0 1 6 6v68a6 6 0 0 1-6 6z"/><path d="M740-2010c0-5.52-4.48-10-10-10H570c-5.52 0-10-4.48-10-10 0 5.52-4.48 10-10 10H390c-5.52 0-10 4.48-10 10" stroke="#3a414a" stroke-width="3"/></g><g fill="none"><path d="M746-2010a6 6 0 0 1-6-6v-68a6 6 0 0 1 6-6h348a6 6 0 0 1 6 6v68a6 6 0 0 1-6 6z"/><path d="M1100-2010c0-5.52-4.48-10-10-10H930c-5.52 0-10-4.48-10-10 0 5.52-4.48 10-10 10H750c-5.52 0-10 4.48-10 10" stroke="#3a414a" stroke-width="3"/></g><g fill="none"><path d="M1186-2030a6 6 0 0 1-6-6v-68a6 6 0 0 1 6-6h28a6 6 0 0 1 6 6v68a6 6 0 0 1-6 6z"/><path d="M1220-2030c0-5.52-4.48-10-10-10s-10-4.48-10-10c0 5.52-4.48 10-10 10s-10 4.48-10 10" stroke="#3a414a" stroke-width="3"/></g><g fill="none"><path d="M1146-2030a6 6 0 0 1-6-6v-68a6 6 0 0 1 6-6h28a6 6 0 0 1 6 6v68a6 6 0 0 1-6 6z"/><path d="M1180-2030c0-5.52-4.48-10-10-10s-10-4.48-10-10c0 5.52-4.48 10-10 10s-10 4.48-10 10" stroke="#3a414a" stroke-width="3"/></g><g fill="none"><path d="M1106-2030a6 6 0 0 1-6-6v-68a6 6 0 0 1 6-6h28a6 6 0 0 1 6 6v68a6 6 0 0 1-6 6z"/><path d="M1140-2030c0-5.52-4.48-10-10-10s-10-4.48-10-10c0 5.52-4.48 10-10 10s-10 4.48-10 10" stroke="#3a414a" stroke-width="3"/></g><path d="M-720-2234a6 6 0 0 1 6-6h68a6 6 0 0 1 6 6v798a6 6 0 0 1-6 6h-68a6 6 0 0 1-6-6z" fill="none"/><path d="M-640-1430c-5.52 0-10-4.48-10-10v-385c0-5.52-4.48-10-10-10 5.52 0 10-4.48 10-10v-385c0-5.52 4.48-10 10-10" stroke="#3a414a" stroke-width="3" fill="none"/><path d="M-800-1860.67a6 6 0 0 1 6-6h128a6 6 0 0 1 6 6v51.34a6 6 0 0 1-6 6h-128a6 6 0 0 1-6-6z" stroke="#000" stroke-opacity="0" fill="#fff" fill-opacity="0"/><use xlink:href="#E" transform="matrix(1,0,0,1,-795,-1861.6666666666667) translate(19.382716049382722 21.15277777777778)"/><use xlink:href="#F" transform="matrix(1,0,0,1,-795,-1861.6666666666667) translate(87.1604938271605 21.15277777777778)"/><use xlink:href="#G" transform="matrix(1,0,0,1,-795,-1861.6666666666667) translate(15.092592592592595 47.81944444444444)"/><use xlink:href="#H" transform="matrix(1,0,0,1,-795,-1861.6666666666667) translate(61.882716049382715 47.81944444444444)"/><path d="M-700-1274a6 6 0 0 1 6-6h68a6 6 0 0 1 6 6v328a6 6 0 0 1-6 6h-68a6 6 0 0 1-6-6z" fill="none"/><path d="M-620-940c-5.52 0-10-4.48-10-10v-150c0-5.52-4.48-10-10-10 5.52 0 10-4.48 10-10v-150c0-5.52 4.48-10 10-10" stroke="#3a414a" stroke-width="3" fill="none"/><path d="M-800-1125.67a6 6 0 0 1 6-6h128a6 6 0 0 1 6 6v51.34a6 6 0 0 1-6 6h-128a6 6 0 0 1-6-6z" stroke="#000" stroke-opacity="0" fill="#fff" fill-opacity="0"/><use xlink:href="#E" transform="matrix(1,0,0,1,-795,-1126.6666666666667) translate(4.598765432098773 31.27777777777778)"/><use xlink:href="#H" transform="matrix(1,0,0,1,-795,-1126.6666666666667) translate(72.37654320987654 31.27777777777778)"/><path d="M220-2639.72a6 6 0 0 1 6-6h28a6 6 0 0 1 6 6V-2457a6 6 0 0 1-6 6h-28a6 6 0 0 1-6-6z" stroke="#3a414a" fill="#fff7a1"/><use xlink:href="#m" transform="matrix(-1.8369701987210297e-16,-1,1,-1.8369701987210297e-16,232.00000000000045,-2463.0000000000005) translate(36.324074074074076 17.77777777777778)"/><use xlink:href="#o" transform="matrix(-1.8369701987210297e-16,-1,1,-1.8369701987210297e-16,232.00000000000045,-2463.0000000000005) translate(79.24382716049382 17.77777777777778)"/><path d="M-260-2584a6 6 0 0 1 6-6h28a6 6 0 0 1 6 6v127a6 6 0 0 1-6 6h-28a6 6 0 0 1-6-6z" stroke="#3a414a" fill="#fff7a1"/><use xlink:href="#m" transform="matrix(-1.8369701987210297e-16,-1,1,-1.8369701987210297e-16,-248.00000000000045,-2463) translate(9.117283950617278 17.77777777777778)"/><use xlink:href="#n" transform="matrix(-1.8369701987210297e-16,-1,1,-1.8369701987210297e-16,-248.00000000000045,-2463) translate(52.03703703703703 17.77777777777778)"/><path d="M180-2639.72a6 6 0 0 1 6-6h28a6 6 0 0 1 6 6V-2457a6 6 0 0 1-6 6h-28a6 6 0 0 1-6-6z" stroke="#3a414a" fill="#fff0f0"/><use xlink:href="#I" transform="matrix(-1.8369701987210297e-16,-1,1,-1.8369701987210297e-16,192.00000000000045,-2463.0000000000005) translate(7.342592592592609 17.77777777777778)"/><use xlink:href="#o" transform="matrix(-1.8369701987210297e-16,-1,1,-1.8369701987210297e-16,192.00000000000045,-2463.0000000000005) translate(108.2253086419753 17.77777777777778)"/><path d="M-60-2582a6 6 0 0 1 6-6h28a6 6 0 0 1 6 6v127a6 6 0 0 1-6 6h-28a6 6 0 0 1-6-6z" stroke="#3a414a" fill="#fff0f0"/><use xlink:href="#J" transform="matrix(-1.8369701987210297e-16,-1,1,-1.8369701987210297e-16,-48.000000000000455,-2461) translate(13.231481481481488 17.77777777777778)"/><path d="M-300-2634a6 6 0 0 1 6-6h28a6 6 0 0 1 6 6v177a6 6 0 0 1-6 6h-28a6 6 0 0 1-6-6z" stroke="#3a414a" fill="#fbf0ff"/><use xlink:href="#l" transform="matrix(-1.8369701987210297e-16,-1,1,-1.8369701987210297e-16,-288.00000000000045,-2463) translate(64.6604938271605 17.77777777777778)"/><path d="M-220-2639.72a6 6 0 0 1 6-6h148a6 6 0 0 1 6 6V-2455a6 6 0 0 1-6 6h-148a6 6 0 0 1-6-6z" stroke="#3a414a" fill="#54c45e"/><use xlink:href="#K" transform="matrix(-1.8369701987210297e-16,-1,1,-1.8369701987210297e-16,-208,-2461.0000000000005) translate(36.706790123456784 73.02777777777777)"/><use xlink:href="#L" transform="matrix(-1.8369701987210297e-16,-1,1,-1.8369701987210297e-16,-208,-2461.0000000000005) translate(68.74382716049382 73.02777777777777)"/><path d="M-20-2640.72a6 6 0 0 1 6-6h188a6 6 0 0 1 6 6V-2456a6 6 0 0 1-6 6H-14a6 6 0 0 1-6-6z" stroke="#3a414a" fill="#54c45e"/><use xlink:href="#M" transform="matrix(-1.8369701987210297e-16,-1,1,-1.8369701987210297e-16,-7.999999999999545,-2462.0000000000005) translate(10.163580246913583 94.77777777777777)"/><use xlink:href="#L" transform="matrix(-1.8369701987210297e-16,-1,1,-1.8369701987210297e-16,-7.999999999999545,-2462.0000000000005) translate(95.28703703703702 94.77777777777777)"/><path d="M-280-2641v-63a6 6 0 0 1 6-6h568.44a6 6 0 0 1 6 6v57.52a6 6 0 0 1-6 6h-17.62" stroke="#3a414a" fill="none"/><path d="M-279.5-2640.5h-1v-.5h1z" stroke="#3a414a" stroke-width=".05" fill="#3a414a"/><path d="M262.06-2640.48l14.26-4.64v9.27z" stroke="#3a414a" fill="#3a414a"/><path d="M240-2646.72v-33.5a6 6 0 0 0-6-6h-468a6 6 0 0 0-6 6v73.34" stroke="#3a414a" fill="none"/><path d="M240.5-2646.22h-1v-.5h1z" stroke="#3a414a" stroke-width=".05" fill="#3a414a"/><path d="M-240-2592.12l-4.63-14.26h9.26z" stroke="#3a414a" fill="#3a414a"/><path d="M200-2450v54a6 6 0 0 1-6 6H-34a6 6 0 0 1-6-6v-36.12" stroke="#3a414a" fill="none"/><path d="M200.5-2450h-1v-.5h1z" stroke="#3a414a" stroke-width=".05" fill="#3a414a"/><path d="M-40-2446.88l4.63 14.26h-9.27z" stroke="#3a414a" fill="#3a414a"/><path d="M240-2646.72v-33.5a6 6 0 0 0-6-6h-368a6 6 0 0 0-6 6v17.6" stroke="#3a414a" fill="none"/><path d="M240.5-2646.22h-1v-.5h1z" stroke="#3a414a" stroke-width=".05" fill="#3a414a"/><path d="M-140-2647.84l-4.63-14.26h9.26z" stroke="#3a414a" fill="#3a414a"/><path d="M200-2450v54a6 6 0 0 1-6 6H86a6 6 0 0 1-6-6v-37.12" stroke="#3a414a" fill="none"/><path d="M200.5-2450h-1v-.5h1z" stroke="#3a414a" stroke-width=".05" fill="#3a414a"/><path d="M80-2447.88l4.64 14.26h-9.28z" stroke="#3a414a" fill="#3a414a"/><path d="M259.5-2360h-63.12M259.5-2360h.5" stroke="#3a414a" fill="none"/><path d="M181.62-2360l14.26-4.64v9.28z" stroke="#3a414a" fill="#3a414a"/><path d="M-299.5-2350h443.12M-299.5-2350h-.5" stroke="#3a414a" fill="none"/><path d="M158.38-2350l-14.26 4.64v-9.28z" stroke="#3a414a" fill="#3a414a"/><path d="M-400-2384a6 6 0 0 1 6-6h68a6 6 0 0 1 6 6v58a6 6 0 0 1-6 6h-68a6 6 0 0 1-6-6z" fill="none"/><path d="M-320-2320c-5.52 0-10-4.48-10-10v-15c0-5.52-4.48-10-10-10 5.52 0 10-4.48 10-10v-15c0-5.52 4.48-10 10-10" stroke="#3a414a" stroke-width="3" fill="none"/><g><use xlink:href="#y" transform="matrix(1,0,0,1,-395,-2385) translate(-13.02469135802469 21.111111111111114)"/><use xlink:href="#z" transform="matrix(1,0,0,1,-395,-2385) translate(-47.407407407407405 47.777777777777786)"/></g><path d="M-520-1054a6 6 0 0 1 6-6h68a6 6 0 0 1 6 6v58a6 6 0 0 1-6 6h-68a6 6 0 0 1-6-6z" fill="none"/><path d="M-440-990c-5.52 0-10-4.48-10-10v-15c0-5.52-4.48-10-10-10 5.52 0 10-4.48 10-10v-15c0-5.52 4.48-10 10-10" stroke="#3a414a" stroke-width="3" fill="none"/><g><use xlink:href="#y" transform="matrix(1,0,0,1,-515,-1055) translate(-13.02469135802469 21.111111111111114)"/><use xlink:href="#z" transform="matrix(1,0,0,1,-515,-1055) translate(-47.407407407407405 47.777777777777786)"/></g><g fill="none"><path d="M1294-1400a6 6 0 0 1 6 6v68a6 6 0 0 1-6 6h-188a6 6 0 0 1-6-6v-68a6 6 0 0 1 6-6z"/><path d="M1100-1400c0 5.52 4.48 10 10 10h80c5.52 0 10 4.48 10 10 0-5.52 4.48-10 10-10h80c5.52 0 10-4.48 10-10" stroke="#3a414a" stroke-width="3"/></g><path d="M1100-1354a6 6 0 0 1 6-6h188a6 6 0 0 1 6 6v48a6 6 0 0 1-6 6h-188a6 6 0 0 1-6-6z" stroke="#000" stroke-opacity="0" fill="#fff" fill-opacity="0"/><g><use xlink:href="#N" transform="matrix(1,0,0,1,1105,-1355) translate(32.12962962962962 30.27777777777778)"/></g><g fill="none"><path d="M1094-1430a6 6 0 0 1 6 6v68a6 6 0 0 1-6 6H-414a6 6 0 0 1-6-6v-68a6 6 0 0 1 6-6z"/><path d="M-420-1430c0 5.52 4.48 10 10 10h740c5.52 0 10 4.48 10 10 0-5.52 4.48-10 10-10h740c5.52 0 10-4.48 10-10" stroke="#3a414a" stroke-width="3"/></g><path d="M-420-1384a6 6 0 0 1 6-6h1508a6 6 0 0 1 6 6v48a6 6 0 0 1-6 6H-414a6 6 0 0 1-6-6z" stroke="#000" stroke-opacity="0" fill="#fff" fill-opacity="0"/><g><use xlink:href="#O" transform="matrix(1,0,0,1,-415,-1385) translate(701.4197530864197 30.27777777777778)"/></g><g fill="none"><path d="M254-2330a6 6 0 0 1 6 6v68a6 6 0 0 1-6 6h-68a6 6 0 0 1-6-6v-68a6 6 0 0 1 6-6z"/><path d="M180-2330c0 5.52 4.48 10 10 10h20c5.52 0 10 4.48 10 10 0-5.52 4.48-10 10-10h20c5.52 0 10-4.48 10-10" stroke="#3a414a" stroke-width="3"/></g><path d="M180-2284a6 6 0 0 1 6-6h68a6 6 0 0 1 6 6v48a6 6 0 0 1-6 6h-68a6 6 0 0 1-6-6z" stroke="#000" stroke-opacity="0" fill="#fff" fill-opacity="0"/><g><use xlink:href="#N" transform="matrix(1,0,0,1,185,-2285) translate(-27.87037037037038 29.444444444444443)"/></g><g fill="none"><path d="M174-2340a6 6 0 0 1 6 6v68a6 6 0 0 1-6 6h-468a6 6 0 0 1-6-6v-68a6 6 0 0 1 6-6z"/><path d="M-300-2340c0 5.52 4.48 10 10 10h220c5.52 0 10 4.48 10 10 0-5.52 4.48-10 10-10h220c5.52 0 10-4.48 10-10" stroke="#3a414a" stroke-width="3"/></g><path d="M-300-2294a6 6 0 0 1 6-6h468a6 6 0 0 1 6 6v48a6 6 0 0 1-6 6h-468a6 6 0 0 1-6-6z" stroke="#000" stroke-opacity="0" fill="#fff" fill-opacity="0"/><g><use xlink:href="#O" transform="matrix(1,0,0,1,-295,-2295) translate(181.41975308641975 30.27777777777778)"/></g><g fill="none"><path d="M34-920a6 6 0 0 1 6 6v68a6 6 0 0 1-6 6H6a6 6 0 0 1-6-6v-68a6 6 0 0 1 6-6z"/><path d="M0-920c0 5.52 4.48 10 10 10s10 4.48 10 10c0-5.52 4.48-10 10-10s10-4.48 10-10" stroke="#3a414a" stroke-width="3"/></g><path d="M0-874a6 6 0 0 1 6-6h28a6 6 0 0 1 6 6v48a6 6 0 0 1-6 6H6a6 6 0 0 1-6-6z" stroke="#000" stroke-opacity="0" fill="#fff" fill-opacity="0"/><g><use xlink:href="#N" transform="matrix(1,0,0,1,5,-875) translate(-47.87037037037038 29.444444444444443)"/></g><g fill="none"><path d="M-6-940a6 6 0 0 1 6 6v68a6 6 0 0 1-6 6h-388a6 6 0 0 1-6-6v-68a6 6 0 0 1 6-6z"/><path d="M-400-940c0 5.52 4.48 10 10 10h180c5.52 0 10 4.48 10 10 0-5.52 4.48-10 10-10h180c5.52 0 10-4.48 10-10" stroke="#3a414a" stroke-width="3"/></g><path d="M-400-894a6 6 0 0 1 6-6H-6a6 6 0 0 1 6 6v48a6 6 0 0 1-6 6h-388a6 6 0 0 1-6-6z" stroke="#000" stroke-opacity="0" fill="#fff" fill-opacity="0"/><g><use xlink:href="#O" transform="matrix(1,0,0,1,-395,-895) translate(141.41975308641975 30.27777777777778)"/></g><defs><path fill="#3a414a" d="M33 0v-248h34V0H33" id="P"/><path fill="#3a414a" d="M140-251c81 0 123 46 123 126C263-46 219 4 140 4 59 4 17-45 17-125s42-126 123-126zm0 227c63 0 89-41 89-101s-29-99-89-99c-61 0-89 39-89 99S79-25 140-24" id="Q"/><path fill="#3a414a" d="M16-82v-28h88v28H16" id="R"/><path fill="#3a414a" d="M160-131c35 5 61 23 61 61C221 17 115-2 30 0v-248c76 3 177-17 177 60 0 33-19 50-47 57zm-97-11c50-1 110 9 110-42 0-47-63-36-110-37v79zm0 115c55-2 124 14 124-45 0-56-70-42-124-44v89" id="S"/><path fill="#3a414a" d="M24 0v-261h32V0H24" id="T"/><path fill="#3a414a" d="M100-194c62-1 85 37 85 99 1 63-27 99-86 99S16-35 15-95c0-66 28-99 85-99zM99-20c44 1 53-31 53-75 0-43-8-75-51-75s-53 32-53 75 10 74 51 75" id="U"/><path fill="#3a414a" d="M96-169c-40 0-48 33-48 73s9 75 48 75c24 0 41-14 43-38l32 2c-6 37-31 61-74 61-59 0-76-41-82-99-10-93 101-131 147-64 4 7 5 14 7 22l-32 3c-4-21-16-35-41-35" id="V"/><path fill="#3a414a" d="M143 0L79-87 56-68V0H24v-261h32v163l83-92h37l-77 82L181 0h-38" id="W"/><g id="a"><use transform="matrix(0.06172839506172839,0,0,0.06172839506172839,0,0)" xlink:href="#P"/><use transform="matrix(0.06172839506172839,0,0,0.06172839506172839,6.172839506172839,0)" xlink:href="#Q"/><use transform="matrix(0.06172839506172839,0,0,0.06172839506172839,23.456790123456788,0)" xlink:href="#R"/><use transform="matrix(0.06172839506172839,0,0,0.06172839506172839,30.80246913580247,0)" xlink:href="#S"/><use transform="matrix(0.06172839506172839,0,0,0.06172839506172839,45.61728395061728,0)" xlink:href="#T"/><use transform="matrix(0.06172839506172839,0,0,0.06172839506172839,50.49382716049382,0)" xlink:href="#U"/><use transform="matrix(0.06172839506172839,0,0,0.06172839506172839,62.8395061728395,0)" xlink:href="#V"/><use transform="matrix(0.06172839506172839,0,0,0.06172839506172839,73.9506172839506,0)" xlink:href="#W"/></g><path fill="#3a414a" d="M117-194c89-4 53 116 60 194h-32v-121c0-31-8-49-39-48C34-167 62-67 57 0H25l-1-190h30c1 10-1 24 2 32 11-22 29-35 61-36" id="X"/><path fill="#3a414a" d="M33-154v-36h34v36H33zM33 0v-36h34V0H33" id="Y"/><path fill="#3a414a" d="M101-251c68 0 85 55 85 127S166 4 100 4C33 4 14-52 14-124c0-73 17-127 87-127zm-1 229c47 0 54-49 54-102s-4-102-53-102c-51 0-55 48-55 102 0 53 5 102 54 102" id="Z"/><path fill="#3a414a" d="M33 0v-38h34V0H33" id="aa"/><path fill="#3a414a" d="M155-56V0h-30v-56H8v-25l114-167h33v167h35v25h-35zm-30-156c-27 46-58 90-88 131h88v-131" id="ab"/><path fill="#3a414a" d="M194 0L95-120 63-95V0H30v-248h33v124l119-124h40L117-140 236 0h-42" id="ac"/><g id="b"><use transform="matrix(0.06172839506172839,0,0,0.06172839506172839,0,0)" xlink:href="#X"/><use transform="matrix(0.06172839506172839,0,0,0.06172839506172839,12.345679012345679,0)" xlink:href="#Y"/><use transform="matrix(0.06172839506172839,0,0,0.06172839506172839,18.51851851851852,0)" xlink:href="#Z"/><use transform="matrix(0.06172839506172839,0,0,0.06172839506172839,30.864197530864196,0)" xlink:href="#aa"/><use transform="matrix(0.06172839506172839,0,0,0.06172839506172839,37.03703703703704,0)" xlink:href="#aa"/><use transform="matrix(0.06172839506172839,0,0,0.06172839506172839,43.20987654320988,0)" xlink:href="#ab"/><use transform="matrix(0.06172839506172839,0,0,0.06172839506172839,55.55555555555556,0)" xlink:href="#ac"/></g><path fill="#3a414a" d="M110-160c48 1 74 30 74 79 0 53-28 85-80 85-65 0-83-55-86-122-5-90 50-162 133-122 14 7 22 21 27 39l-31 6c-5-40-67-38-82-6-9 19-15 44-15 74 11-20 30-34 60-33zm-7 138c34 0 49-23 49-58s-16-56-50-56c-29 0-50 16-49 49 1 36 15 65 50 65" id="ad"/><g id="c"><use transform="matrix(0.06172839506172839,0,0,0.06172839506172839,0,0)" xlink:href="#X"/><use transform="matrix(0.06172839506172839,0,0,0.06172839506172839,12.345679012345679,0)" xlink:href="#Y"/><use transform="matrix(0.06172839506172839,0,0,0.06172839506172839,18.51851851851852,0)" xlink:href="#ab"/><use transform="matrix(0.06172839506172839,0,0,0.06172839506172839,30.864197530864196,0)" xlink:href="#ac"/><use transform="matrix(0.06172839506172839,0,0,0.06172839506172839,45.67901234567901,0)" xlink:href="#aa"/><use transform="matrix(0.06172839506172839,0,0,0.06172839506172839,51.851851851851855,0)" xlink:href="#aa"/><use transform="matrix(0.06172839506172839,0,0,0.06172839506172839,58.0246913580247,0)" xlink:href="#ad"/><use transform="matrix(0.06172839506172839,0,0,0.06172839506172839,70.37037037037038,0)" xlink:href="#ab"/><use transform="matrix(0.06172839506172839,0,0,0.06172839506172839,82.71604938271606,0)" xlink:href="#ac"/></g><path fill="#3a414a" d="M134-131c28 9 52 24 51 62-1 50-34 73-85 73S17-19 16-69c0-36 21-54 49-61-75-25-45-126 34-121 46 3 78 18 79 63 0 33-17 51-44 57zm-34-11c31 1 46-15 46-44 0-28-17-43-47-42-29 0-46 13-45 42 1 28 16 44 46 44zm1 122c35 0 51-18 51-52 0-30-18-46-53-46-33 0-51 17-51 47 0 34 19 51 53 51" id="ae"/><g id="d"><use transform="matrix(0.06172839506172839,0,0,0.06172839506172839,0,0)" xlink:href="#X"/><use transform="matrix(0.06172839506172839,0,0,0.06172839506172839,12.345679012345679,0)" xlink:href="#Y"/><use transform="matrix(0.06172839506172839,0,0,0.06172839506172839,18.51851851851852,0)" xlink:href="#ad"/><use transform="matrix(0.06172839506172839,0,0,0.06172839506172839,30.864197530864196,0)" xlink:href="#ab"/><use transform="matrix(0.06172839506172839,0,0,0.06172839506172839,43.20987654320987,0)" xlink:href="#ac"/><use transform="matrix(0.06172839506172839,0,0,0.06172839506172839,58.02469135802468,0)" xlink:href="#aa"/><use transform="matrix(0.06172839506172839,0,0,0.06172839506172839,64.19753086419752,0)" xlink:href="#aa"/><use transform="matrix(0.06172839506172839,0,0,0.06172839506172839,70.37037037037035,0)" xlink:href="#ad"/><use transform="matrix(0.06172839506172839,0,0,0.06172839506172839,82.71604938271604,0)" xlink:href="#ae"/><use transform="matrix(0.06172839506172839,0,0,0.06172839506172839,95.06172839506172,0)" xlink:href="#ac"/></g><path fill="#3a414a" d="M27 0v-27h64v-190l-56 39v-29l58-41h29v221h61V0H27" id="af"/><path fill="#3a414a" d="M240 0l2-218c-23 76-54 145-80 218h-23L58-218 59 0H30v-248h44l77 211c21-75 51-140 76-211h43V0h-30" id="ag"/><g id="e"><use transform="matrix(0.06172839506172839,0,0,0.06172839506172839,0,0)" xlink:href="#X"/><use transform="matrix(0.06172839506172839,0,0,0.06172839506172839,12.345679012345679,0)" xlink:href="#Y"/><use transform="matrix(0.06172839506172839,0,0,0.06172839506172839,18.51851851851852,0)" xlink:href="#ad"/><use transform="matrix(0.06172839506172839,0,0,0.06172839506172839,30.864197530864196,0)" xlink:href="#ae"/><use transform="matrix(0.06172839506172839,0,0,0.06172839506172839,43.20987654320987,0)" xlink:href="#ac"/><use transform="matrix(0.06172839506172839,0,0,0.06172839506172839,58.02469135802468,0)" xlink:href="#aa"/><use transform="matrix(0.06172839506172839,0,0,0.06172839506172839,64.19753086419752,0)" xlink:href="#aa"/><use transform="matrix(0.06172839506172839,0,0,0.06172839506172839,70.37037037037035,0)" xlink:href="#af"/><use transform="matrix(0.06172839506172839,0,0,0.06172839506172839,82.71604938271604,0)" xlink:href="#ag"/></g><path fill="#3a414a" d="M30 0v-248h33v221h125V0H30" id="ah"/><path fill="#3a414a" d="M141-36C126-15 110 5 73 4 37 3 15-17 15-53c-1-64 63-63 125-63 3-35-9-54-41-54-24 1-41 7-42 31l-33-3c5-37 33-52 76-52 45 0 72 20 72 64v82c-1 20 7 32 28 27v20c-31 9-61-2-59-35zM48-53c0 20 12 33 32 33 41-3 63-29 60-74-43 2-92-5-92 41" id="ai"/><path fill="#3a414a" d="M114-163C36-179 61-72 57 0H25l-1-190h30c1 12-1 29 2 39 6-27 23-49 58-41v29" id="aj"/><path fill="#3a414a" d="M177-190C167-65 218 103 67 71c-23-6-38-20-44-43l32-5c15 47 100 32 89-28v-30C133-14 115 1 83 1 29 1 15-40 15-95c0-56 16-97 71-98 29-1 48 16 59 35 1-10 0-23 2-32h30zM94-22c36 0 50-32 50-73 0-42-14-75-50-75-39 0-46 34-46 75s6 73 46 73" id="ak"/><path fill="#3a414a" d="M100-194c63 0 86 42 84 106H49c0 40 14 67 53 68 26 1 43-12 49-29l28 8c-11 28-37 45-77 45C44 4 14-33 15-96c1-61 26-98 85-98zm52 81c6-60-76-77-97-28-3 7-6 17-6 28h103" id="al"/><g id="f"><use transform="matrix(0.06172839506172839,0,0,0.06172839506172839,0,0)" xlink:href="#ah"/><use transform="matrix(0.06172839506172839,0,0,0.06172839506172839,12.345679012345679,0)" xlink:href="#ai"/><use transform="matrix(0.06172839506172839,0,0,0.06172839506172839,24.691358024691358,0)" xlink:href="#aj"/><use transform="matrix(0.06172839506172839,0,0,0.06172839506172839,32.03703703703704,0)" xlink:href="#ak"/><use transform="matrix(0.06172839506172839,0,0,0.06172839506172839,44.382716049382715,0)" xlink:href="#al"/></g><path fill="#3a414a" d="M210-169c-67 3-38 105-44 169h-31v-121c0-29-5-50-35-48C34-165 62-65 56 0H25l-1-190h30c1 10-1 24 2 32 10-44 99-50 107 0 11-21 27-35 58-36 85-2 47 119 55 194h-31v-121c0-29-5-49-35-48" id="am"/><path fill="#3a414a" d="M84 4C-5 8 30-112 23-190h32v120c0 31 7 50 39 49 72-2 45-101 50-169h31l1 190h-30c-1-10 1-25-2-33-11 22-28 36-60 37" id="an"/><path fill="#3a414a" d="M59-47c-2 24 18 29 38 22v24C64 9 27 4 27-40v-127H5v-23h24l9-43h21v43h35v23H59v120" id="ao"/><path fill="#3a414a" d="M24-231v-30h32v30H24zM24 0v-190h32V0H24" id="ap"/><g id="g"><use transform="matrix(0.06172839506172839,0,0,0.06172839506172839,0,0)" xlink:href="#am"/><use transform="matrix(0.06172839506172839,0,0,0.06172839506172839,18.456790123456788,0)" xlink:href="#an"/><use transform="matrix(0.06172839506172839,0,0,0.06172839506172839,30.80246913580247,0)" xlink:href="#T"/><use transform="matrix(0.06172839506172839,0,0,0.06172839506172839,35.67901234567901,0)" xlink:href="#ao"/><use transform="matrix(0.06172839506172839,0,0,0.06172839506172839,41.851851851851855,0)" xlink:href="#ap"/><use transform="matrix(0.06172839506172839,0,0,0.06172839506172839,46.7283950617284,0)" xlink:href="#R"/><use transform="matrix(0.06172839506172839,0,0,0.06172839506172839,54.074074074074076,0)" xlink:href="#P"/><use transform="matrix(0.06172839506172839,0,0,0.06172839506172839,60.24691358024692,0)" xlink:href="#Q"/></g><path fill="#3a414a" d="M212-179c-10-28-35-45-73-45-59 0-87 40-87 99 0 60 29 101 89 101 43 0 62-24 78-52l27 14C228-24 195 4 139 4 59 4 22-46 18-125c-6-104 99-153 187-111 19 9 31 26 39 46" id="aq"/><g id="h"><use transform="matrix(0.06172839506172839,0,0,0.06172839506172839,0,0)" xlink:href="#S"/><use transform="matrix(0.06172839506172839,0,0,0.06172839506172839,14.814814814814813,0)" xlink:href="#ah"/><use transform="matrix(0.06172839506172839,0,0,0.06172839506172839,27.160493827160494,0)" xlink:href="#Q"/><use transform="matrix(0.06172839506172839,0,0,0.06172839506172839,44.44444444444444,0)" xlink:href="#aq"/><use transform="matrix(0.06172839506172839,0,0,0.06172839506172839,60.432098765432094,0)" xlink:href="#ac"/></g><path fill="#3a414a" d="M30-248c87 1 191-15 191 75 0 78-77 80-158 76V0H30v-248zm33 125c57 0 124 11 124-50 0-59-68-47-124-48v98" id="ar"/><g id="i"><use transform="matrix(0.06172839506172839,0,0,0.06172839506172839,0,0)" xlink:href="#ar"/><use transform="matrix(0.06172839506172839,0,0,0.06172839506172839,14.814814814814813,0)" xlink:href="#ai"/><use transform="matrix(0.06172839506172839,0,0,0.06172839506172839,27.160493827160494,0)" xlink:href="#T"/><use transform="matrix(0.06172839506172839,0,0,0.06172839506172839,32.03703703703704,0)" xlink:href="#T"/><use transform="matrix(0.06172839506172839,0,0,0.06172839506172839,36.91358024691358,0)" xlink:href="#al"/><use transform="matrix(0.06172839506172839,0,0,0.06172839506172839,49.25925925925926,0)" xlink:href="#ao"/></g><path fill="#3a414a" d="M26 75v-336h71v23H56V52h41v23H26" id="as"/><path fill="#3a414a" d="M3 75V52h41v-290H3v-23h71V75H3" id="at"/><g id="j"><use transform="matrix(0.06172839506172839,0,0,0.06172839506172839,0,0)" xlink:href="#aq"/><use transform="matrix(0.06172839506172839,0,0,0.06172839506172839,15.987654320987653,0)" xlink:href="#U"/><use transform="matrix(0.06172839506172839,0,0,0.06172839506172839,28.333333333333332,0)" xlink:href="#T"/><use transform="matrix(0.06172839506172839,0,0,0.06172839506172839,33.20987654320987,0)" xlink:href="#T"/><use transform="matrix(0.06172839506172839,0,0,0.06172839506172839,38.08641975308642,0)" xlink:href="#as"/><use transform="matrix(0.043209876543209874,0,0,0.043209876543209874,44.25925925925927,3.1111111111111107)" xlink:href="#ap"/><use transform="matrix(0.06172839506172839,0,0,0.06172839506172839,47.67283950617284,0)" xlink:href="#at"/></g><path fill="#3a414a" d="M30 0v-248h187v28H63v79h144v27H63v87h162V0H30" id="au"/><path fill="#3a414a" d="M179-190L93 31C79 59 56 82 12 73V49c39 6 53-20 64-50L1-190h34L92-34l54-156h33" id="av"/><g id="k"><use transform="matrix(0.06172839506172839,0,0,0.06172839506172839,0,0)" xlink:href="#au"/><use transform="matrix(0.06172839506172839,0,0,0.06172839506172839,14.814814814814813,0)" xlink:href="#X"/><use transform="matrix(0.06172839506172839,0,0,0.06172839506172839,27.160493827160494,0)" xlink:href="#ao"/><use transform="matrix(0.06172839506172839,0,0,0.06172839506172839,33.333333333333336,0)" xlink:href="#aj"/><use transform="matrix(0.06172839506172839,0,0,0.06172839506172839,40.67901234567901,0)" xlink:href="#av"/><use transform="matrix(0.06172839506172839,0,0,0.06172839506172839,51.79012345679013,0)" xlink:href="#as"/><use transform="matrix(0.043209876543209874,0,0,0.043209876543209874,57.96296296296296,3.1111111111111107)" xlink:href="#ap"/><use transform="matrix(0.06172839506172839,0,0,0.06172839506172839,61.37654320987655,0)" xlink:href="#at"/></g><path fill="#3a414a" d="M197 0v-115H63V0H30v-248h33v105h134v-105h34V0h-34" id="aw"/><path fill="#3a414a" d="M85-194c31 0 48 13 60 33l-1-100h32l1 261h-30c-2-10 0-23-3-31C134-8 116 4 85 4 32 4 16-35 15-94c0-66 23-100 70-100zm9 24c-40 0-46 34-46 75 0 40 6 74 45 74 42 0 51-32 51-76 0-42-9-74-50-73" id="ax"/><g id="l"><use transform="matrix(0.06172839506172839,0,0,0.06172839506172839,0,0)" xlink:href="#aw"/><use transform="matrix(0.06172839506172839,0,0,0.06172839506172839,15.987654320987653,0)" xlink:href="#ax"/><use transform="matrix(0.06172839506172839,0,0,0.06172839506172839,28.333333333333332,0)" xlink:href="#aj"/></g><g id="m"><use transform="matrix(0.06172839506172839,0,0,0.06172839506172839,0,0)" xlink:href="#ac"/><use transform="matrix(0.06172839506172839,0,0,0.06172839506172839,14.814814814814813,0)" xlink:href="#as"/><use transform="matrix(0.043209876543209874,0,0,0.043209876543209874,20.98765432098765,3.1111111111111107)" xlink:href="#ap"/><use transform="matrix(0.06172839506172839,0,0,0.06172839506172839,24.40123456790123,0)" xlink:href="#at"/><use transform="matrix(0.06172839506172839,0,0,0.06172839506172839,30.57407407407407,0)" xlink:href="#Y"/></g><g id="n"><use transform="matrix(0.06172839506172839,0,0,0.06172839506172839,0,0)" xlink:href="#aq"/><use transform="matrix(0.06172839506172839,0,0,0.06172839506172839,15.987654320987653,0)" xlink:href="#U"/><use transform="matrix(0.06172839506172839,0,0,0.06172839506172839,28.333333333333332,0)" xlink:href="#T"/><use transform="matrix(0.06172839506172839,0,0,0.06172839506172839,33.20987654320987,0)" xlink:href="#T"/><use transform="matrix(0.06172839506172839,0,0,0.06172839506172839,38.08641975308642,0)" xlink:href="#as"/><use transform="matrix(0.043209876543209874,0,0,0.043209876543209874,44.25925925925927,3.1111111111111107)" xlink:href="#ap"/><use transform="matrix(0.06172839506172839,0,0,0.06172839506172839,47.67283950617284,0)" xlink:href="#at"/></g><g id="o"><use transform="matrix(0.06172839506172839,0,0,0.06172839506172839,0,0)" xlink:href="#ar"/><use transform="matrix(0.06172839506172839,0,0,0.06172839506172839,14.814814814814813,0)" xlink:href="#ai"/><use transform="matrix(0.06172839506172839,0,0,0.06172839506172839,27.160493827160494,0)" xlink:href="#T"/><use transform="matrix(0.06172839506172839,0,0,0.06172839506172839,32.03703703703704,0)" xlink:href="#T"/><use transform="matrix(0.06172839506172839,0,0,0.06172839506172839,36.91358024691358,0)" xlink:href="#al"/><use transform="matrix(0.06172839506172839,0,0,0.06172839506172839,49.25925925925926,0)" xlink:href="#ao"/></g><g id="p"><use transform="matrix(0.06172839506172839,0,0,0.06172839506172839,0,0)" xlink:href="#P"/><use transform="matrix(0.06172839506172839,0,0,0.06172839506172839,6.172839506172839,0)" xlink:href="#X"/><use transform="matrix(0.06172839506172839,0,0,0.06172839506172839,18.51851851851852,0)" xlink:href="#X"/><use transform="matrix(0.06172839506172839,0,0,0.06172839506172839,30.864197530864196,0)" xlink:href="#al"/><use transform="matrix(0.06172839506172839,0,0,0.06172839506172839,43.20987654320987,0)" xlink:href="#aj"/></g><g id="q"><use transform="matrix(0.06172839506172839,0,0,0.06172839506172839,0,0)" xlink:href="#S"/><use transform="matrix(0.06172839506172839,0,0,0.06172839506172839,14.814814814814813,0)" xlink:href="#T"/><use transform="matrix(0.06172839506172839,0,0,0.06172839506172839,19.691358024691354,0)" xlink:href="#U"/><use transform="matrix(0.06172839506172839,0,0,0.06172839506172839,32.03703703703703,0)" xlink:href="#V"/><use transform="matrix(0.06172839506172839,0,0,0.06172839506172839,43.14814814814814,0)" xlink:href="#W"/></g><path fill="#3a414a" d="M87 75C49 33 22-17 22-94c0-76 28-126 65-167h31c-38 41-64 92-64 168S80 34 118 75H87" id="ay"/><path fill="#3a414a" d="M141 0L90-78 38 0H4l68-98-65-92h35l48 74 47-74h35l-64 92 68 98h-35" id="az"/><g id="r"><use transform="matrix(0.06172839506172839,0,0,0.06172839506172839,0,0)" xlink:href="#ay"/><use transform="matrix(0.06172839506172839,0,0,0.06172839506172839,7.345679012345679,0)" xlink:href="#ac"/><use transform="matrix(0.043209876543209874,0,0,0.043209876543209874,22.160493827160494,3.1111111111111107)" xlink:href="#am"/><use transform="matrix(0.043209876543209874,0,0,0.043209876543209874,35.08024691358025,3.1111111111111107)" xlink:href="#ai"/><use transform="matrix(0.043209876543209874,0,0,0.043209876543209874,43.72222222222222,3.1111111111111107)" xlink:href="#az"/></g><path fill="#3a414a" d="M18-100v-36l175-74v27L42-118l151 64v27" id="aA"/><path fill="#3a414a" d="M18-150v-26h174v26H18zm0 90v-26h174v26H18" id="aB"/><g id="s"><use transform="matrix(0.06172839506172839,0,0,0.06172839506172839,0,0)" xlink:href="#aA"/><use transform="matrix(0.06172839506172839,0,0,0.06172839506172839,12.962962962962962,0)" xlink:href="#aB"/></g><path fill="#3a414a" d="M33-261c38 41 65 92 65 168S71 34 33 75H2C39 34 66-17 66-93S39-220 2-261h31" id="aC"/><g id="t"><use transform="matrix(0.06172839506172839,0,0,0.06172839506172839,0,0)" xlink:href="#ad"/><use transform="matrix(0.06172839506172839,0,0,0.06172839506172839,12.345679012345679,0)" xlink:href="#ab"/><use transform="matrix(0.06172839506172839,0,0,0.06172839506172839,24.691358024691358,0)" xlink:href="#aC"/></g><g id="u"><use transform="matrix(0.06172839506172839,0,0,0.06172839506172839,0,0)" xlink:href="#ar"/><use transform="matrix(0.06172839506172839,0,0,0.06172839506172839,14.814814814814813,0)" xlink:href="#ai"/><use transform="matrix(0.06172839506172839,0,0,0.06172839506172839,27.160493827160494,0)" xlink:href="#T"/><use transform="matrix(0.06172839506172839,0,0,0.06172839506172839,32.03703703703704,0)" xlink:href="#T"/><use transform="matrix(0.06172839506172839,0,0,0.06172839506172839,36.91358024691358,0)" xlink:href="#al"/><use transform="matrix(0.06172839506172839,0,0,0.06172839506172839,49.25925925925926,0)" xlink:href="#ao"/></g><g id="v"><use transform="matrix(0.06172839506172839,0,0,0.06172839506172839,0,0)" xlink:href="#ay"/><use transform="matrix(0.06172839506172839,0,0,0.06172839506172839,7.345679012345679,0)" xlink:href="#ar"/><use transform="matrix(0.043209876543209874,0,0,0.043209876543209874,22.160493827160494,3.1111111111111107)" xlink:href="#am"/><use transform="matrix(0.043209876543209874,0,0,0.043209876543209874,35.08024691358025,3.1111111111111107)" xlink:href="#ai"/><use transform="matrix(0.043209876543209874,0,0,0.043209876543209874,43.72222222222222,3.1111111111111107)" xlink:href="#az"/></g><g id="w"><use transform="matrix(0.06172839506172839,0,0,0.06172839506172839,0,0)" xlink:href="#ap"/><use transform="matrix(0.06172839506172839,0,0,0.06172839506172839,4.876543209876543,0)" xlink:href="#X"/></g><path fill="#3a414a" d="M68-38c1 34 0 65-14 84H32c9-13 17-26 17-46H33v-38h35" id="aD"/><path fill="#3a414a" d="M126-127c33 6 58 20 58 59 0 88-139 92-164 29-3-8-5-16-6-25l32-3c6 27 21 44 54 44 32 0 52-15 52-46 0-38-36-46-79-43v-28c39 1 72-4 72-42 0-27-17-43-46-43-28 0-47 15-49 41l-32-3c6-42 35-63 81-64 48-1 79 21 79 65 0 36-21 52-52 59" id="aE"/><path fill="#3a414a" d="M101-251c82-7 93 87 43 132L82-64C71-53 59-42 53-27h129V0H18c2-99 128-94 128-182 0-28-16-43-45-43s-46 15-49 41l-32-3c6-41 34-60 81-64" id="aF"/><g id="x"><use transform="matrix(0.06172839506172839,0,0,0.06172839506172839,0,0)" xlink:href="#af"/><use transform="matrix(0.06172839506172839,0,0,0.06172839506172839,12.345679012345679,0)" xlink:href="#ad"/><use transform="matrix(0.06172839506172839,0,0,0.06172839506172839,24.691358024691358,0)" xlink:href="#aD"/><use transform="matrix(0.06172839506172839,0,0,0.06172839506172839,30.864197530864196,0)" xlink:href="#aE"/><use transform="matrix(0.06172839506172839,0,0,0.06172839506172839,43.20987654320987,0)" xlink:href="#aF"/><use transform="matrix(0.06172839506172839,0,0,0.06172839506172839,55.55555555555555,0)" xlink:href="#aD"/><use transform="matrix(0.06172839506172839,0,0,0.06172839506172839,61.72839506172839,0)" xlink:href="#ad"/><use transform="matrix(0.06172839506172839,0,0,0.06172839506172839,74.07407407407408,0)" xlink:href="#ab"/><use transform="matrix(0.06172839506172839,0,0,0.06172839506172839,86.41975308641976,0)" xlink:href="#aC"/></g><path fill="#3a414a" d="M233-177c-1 41-23 64-60 70L243 0h-38l-65-103H63V0H30v-248c88 3 205-21 203 71zM63-129c60-2 137 13 137-47 0-61-80-42-137-45v92" id="aG"/><g id="y"><use transform="matrix(0.06172839506172839,0,0,0.06172839506172839,0,0)" xlink:href="#aG"/><use transform="matrix(0.06172839506172839,0,0,0.06172839506172839,15.987654320987653,0)" xlink:href="#al"/><use transform="matrix(0.06172839506172839,0,0,0.06172839506172839,28.333333333333332,0)" xlink:href="#ai"/><use transform="matrix(0.06172839506172839,0,0,0.06172839506172839,40.67901234567901,0)" xlink:href="#ax"/></g><path fill="#3a414a" d="M30-248c118-7 216 8 213 122C240-48 200 0 122 0H30v-248zM63-27c89 8 146-16 146-99s-60-101-146-95v194" id="aH"/><g id="z"><use transform="matrix(0.06172839506172839,0,0,0.06172839506172839,0,0)" xlink:href="#aH"/><use transform="matrix(0.06172839506172839,0,0,0.06172839506172839,15.987654320987653,0)" xlink:href="#ap"/><use transform="matrix(0.06172839506172839,0,0,0.06172839506172839,20.864197530864196,0)" xlink:href="#aj"/><use transform="matrix(0.06172839506172839,0,0,0.06172839506172839,28.209876543209873,0)" xlink:href="#al"/><use transform="matrix(0.06172839506172839,0,0,0.06172839506172839,40.55555555555555,0)" xlink:href="#V"/><use transform="matrix(0.06172839506172839,0,0,0.06172839506172839,51.66666666666666,0)" xlink:href="#ao"/><use transform="matrix(0.06172839506172839,0,0,0.06172839506172839,57.8395061728395,0)" xlink:href="#ap"/><use transform="matrix(0.06172839506172839,0,0,0.06172839506172839,62.716049382716044,0)" xlink:href="#U"/><use transform="matrix(0.06172839506172839,0,0,0.06172839506172839,75.06172839506172,0)" xlink:href="#X"/></g><g id="A"><use transform="matrix(0.06172839506172839,0,0,0.06172839506172839,0,0)" xlink:href="#Q"/><use transform="matrix(0.06172839506172839,0,0,0.06172839506172839,17.28395061728395,0)" xlink:href="#an"/><use transform="matrix(0.06172839506172839,0,0,0.06172839506172839,29.629629629629626,0)" xlink:href="#ao"/><use transform="matrix(0.06172839506172839,0,0,0.06172839506172839,35.80246913580247,0)" xlink:href="#al"/><use transform="matrix(0.06172839506172839,0,0,0.06172839506172839,48.148148148148145,0)" xlink:href="#aj"/></g><g id="B"><use transform="matrix(0.06172839506172839,0,0,0.06172839506172839,0,0)" xlink:href="#ao"/><use transform="matrix(0.06172839506172839,0,0,0.06172839506172839,6.172839506172839,0)" xlink:href="#U"/></g><g id="C"><use transform="matrix(0.06172839506172839,0,0,0.06172839506172839,0,0)" xlink:href="#ap"/><use transform="matrix(0.06172839506172839,0,0,0.06172839506172839,4.876543209876543,0)" xlink:href="#X"/><use transform="matrix(0.06172839506172839,0,0,0.06172839506172839,17.22222222222222,0)" xlink:href="#X"/><use transform="matrix(0.06172839506172839,0,0,0.06172839506172839,29.5679012345679,0)" xlink:href="#al"/><use transform="matrix(0.06172839506172839,0,0,0.06172839506172839,41.913580246913575,0)" xlink:href="#aj"/></g><g id="D"><use transform="matrix(0.06172839506172839,0,0,0.06172839506172839,0,0)" xlink:href="#ac"/><use transform="matrix(0.043209876543209874,0,0,0.043209876543209874,14.814814814814813,3.1111111111111107)" xlink:href="#ap"/></g><path fill="#3a414a" d="M185-189c-5-48-123-54-124 2 14 75 158 14 163 119 3 78-121 87-175 55-17-10-28-26-33-46l33-7c5 56 141 63 141-1 0-78-155-14-162-118-5-82 145-84 179-34 5 7 8 16 11 25" id="aI"/><g id="E"><use transform="matrix(0.06172839506172839,0,0,0.06172839506172839,0,0)" xlink:href="#aI"/><use transform="matrix(0.06172839506172839,0,0,0.06172839506172839,14.814814814814813,0)" xlink:href="#ap"/><use transform="matrix(0.06172839506172839,0,0,0.06172839506172839,19.691358024691354,0)" xlink:href="#X"/><use transform="matrix(0.06172839506172839,0,0,0.06172839506172839,32.03703703703703,0)" xlink:href="#ak"/><use transform="matrix(0.06172839506172839,0,0,0.06172839506172839,44.38271604938271,0)" xlink:href="#T"/><use transform="matrix(0.06172839506172839,0,0,0.06172839506172839,49.25925925925925,0)" xlink:href="#al"/></g><g id="F"><use transform="matrix(0.06172839506172839,0,0,0.06172839506172839,0,0)" xlink:href="#P"/><use transform="matrix(0.06172839506172839,0,0,0.06172839506172839,6.172839506172839,0)" xlink:href="#Q"/></g><path fill="#3a414a" d="M127-220V0H93v-220H8v-28h204v28h-85" id="aJ"/><path fill="#3a414a" d="M206 0h-36l-40-164L89 0H53L-1-190h32L70-26l43-164h34l41 164 42-164h31" id="aK"/><g id="G"><use transform="matrix(0.06172839506172839,0,0,0.06172839506172839,0,0)" xlink:href="#aJ"/><use transform="matrix(0.06172839506172839,0,0,0.06172839506172839,12.28395061728395,0)" xlink:href="#aK"/><use transform="matrix(0.06172839506172839,0,0,0.06172839506172839,28.2716049382716,0)" xlink:href="#U"/></g><path fill="#3a414a" d="M108 0H70L1-190h34L89-25l56-165h34" id="aL"/><g id="H"><use transform="matrix(0.06172839506172839,0,0,0.06172839506172839,0,0)" xlink:href="#ah"/><use transform="matrix(0.06172839506172839,0,0,0.06172839506172839,12.345679012345679,0)" xlink:href="#al"/><use transform="matrix(0.06172839506172839,0,0,0.06172839506172839,24.691358024691358,0)" xlink:href="#aL"/><use transform="matrix(0.06172839506172839,0,0,0.06172839506172839,35.80246913580247,0)" xlink:href="#al"/><use transform="matrix(0.06172839506172839,0,0,0.06172839506172839,48.148148148148145,0)" xlink:href="#T"/></g><g id="I"><use transform="matrix(0.06172839506172839,0,0,0.06172839506172839,0,0)" xlink:href="#P"/><use transform="matrix(0.06172839506172839,0,0,0.06172839506172839,6.172839506172839,0)" xlink:href="#U"/><use transform="matrix(0.06172839506172839,0,0,0.06172839506172839,18.51851851851852,0)" xlink:href="#S"/><use transform="matrix(0.06172839506172839,0,0,0.06172839506172839,33.33333333333333,0)" xlink:href="#T"/><use transform="matrix(0.06172839506172839,0,0,0.06172839506172839,38.20987654320987,0)" xlink:href="#U"/><use transform="matrix(0.06172839506172839,0,0,0.06172839506172839,50.55555555555555,0)" xlink:href="#V"/><use transform="matrix(0.06172839506172839,0,0,0.06172839506172839,61.66666666666666,0)" xlink:href="#W"/><use transform="matrix(0.06172839506172839,0,0,0.06172839506172839,72.77777777777777,0)" xlink:href="#as"/><use transform="matrix(0.043209876543209874,0,0,0.043209876543209874,78.9506172839506,3.1111111111111107)" xlink:href="#ap"/><use transform="matrix(0.06172839506172839,0,0,0.06172839506172839,82.36419753086419,0)" xlink:href="#at"/><use transform="matrix(0.06172839506172839,0,0,0.06172839506172839,88.53703703703702,0)" xlink:href="#Y"/></g><g id="J"><use transform="matrix(0.06172839506172839,0,0,0.06172839506172839,0,0)" xlink:href="#P"/><use transform="matrix(0.06172839506172839,0,0,0.06172839506172839,6.172839506172839,0)" xlink:href="#U"/><use transform="matrix(0.06172839506172839,0,0,0.06172839506172839,18.51851851851852,0)" xlink:href="#S"/><use transform="matrix(0.06172839506172839,0,0,0.06172839506172839,33.33333333333333,0)" xlink:href="#T"/><use transform="matrix(0.06172839506172839,0,0,0.06172839506172839,38.20987654320987,0)" xlink:href="#U"/><use transform="matrix(0.06172839506172839,0,0,0.06172839506172839,50.55555555555555,0)" xlink:href="#V"/><use transform="matrix(0.06172839506172839,0,0,0.06172839506172839,61.66666666666666,0)" xlink:href="#W"/><use transform="matrix(0.06172839506172839,0,0,0.06172839506172839,72.77777777777777,0)" xlink:href="#as"/><use transform="matrix(0.043209876543209874,0,0,0.043209876543209874,78.9506172839506,3.1111111111111107)" xlink:href="#ap"/><use transform="matrix(0.06172839506172839,0,0,0.06172839506172839,82.36419753086419,0)" xlink:href="#at"/></g><g id="K"><use transform="matrix(0.06172839506172839,0,0,0.06172839506172839,0,0)" xlink:href="#ac"/><use transform="matrix(0.06172839506172839,0,0,0.06172839506172839,14.814814814814813,0)" xlink:href="#ap"/><use transform="matrix(0.06172839506172839,0,0,0.06172839506172839,19.691358024691354,0)" xlink:href="#Y"/></g><g id="L"><use transform="matrix(0.06172839506172839,0,0,0.06172839506172839,0,0)" xlink:href="#au"/><use transform="matrix(0.06172839506172839,0,0,0.06172839506172839,14.814814814814813,0)" xlink:href="#X"/><use transform="matrix(0.06172839506172839,0,0,0.06172839506172839,27.160493827160494,0)" xlink:href="#ao"/><use transform="matrix(0.06172839506172839,0,0,0.06172839506172839,33.333333333333336,0)" xlink:href="#aj"/><use transform="matrix(0.06172839506172839,0,0,0.06172839506172839,40.67901234567901,0)" xlink:href="#av"/><use transform="matrix(0.06172839506172839,0,0,0.06172839506172839,51.79012345679013,0)" xlink:href="#as"/><use transform="matrix(0.043209876543209874,0,0,0.043209876543209874,57.96296296296296,3.1111111111111107)" xlink:href="#ap"/><use transform="matrix(0.06172839506172839,0,0,0.06172839506172839,61.37654320987655,0)" xlink:href="#at"/></g><g id="M"><use transform="matrix(0.06172839506172839,0,0,0.06172839506172839,0,0)" xlink:href="#P"/><use transform="matrix(0.06172839506172839,0,0,0.06172839506172839,6.172839506172839,0)" xlink:href="#U"/><use transform="matrix(0.06172839506172839,0,0,0.06172839506172839,18.51851851851852,0)" xlink:href="#S"/><use transform="matrix(0.06172839506172839,0,0,0.06172839506172839,33.33333333333333,0)" xlink:href="#T"/><use transform="matrix(0.06172839506172839,0,0,0.06172839506172839,38.20987654320987,0)" xlink:href="#U"/><use transform="matrix(0.06172839506172839,0,0,0.06172839506172839,50.55555555555555,0)" xlink:href="#V"/><use transform="matrix(0.06172839506172839,0,0,0.06172839506172839,61.66666666666666,0)" xlink:href="#W"/><use transform="matrix(0.06172839506172839,0,0,0.06172839506172839,72.77777777777777,0)" xlink:href="#Y"/></g><path fill="#3a414a" d="M205 0l-28-72H64L36 0H1l101-248h38L239 0h-34zm-38-99l-47-123c-12 45-31 82-46 123h93" id="aM"/><g id="N"><use transform="matrix(0.06172839506172839,0,0,0.06172839506172839,0,0)" xlink:href="#S"/><use transform="matrix(0.06172839506172839,0,0,0.06172839506172839,14.814814814814813,0)" xlink:href="#av"/><use transform="matrix(0.06172839506172839,0,0,0.06172839506172839,25.925925925925924,0)" xlink:href="#ao"/><use transform="matrix(0.06172839506172839,0,0,0.06172839506172839,32.098765432098766,0)" xlink:href="#al"/><use transform="matrix(0.06172839506172839,0,0,0.06172839506172839,44.44444444444444,0)" xlink:href="#R"/><use transform="matrix(0.06172839506172839,0,0,0.06172839506172839,51.79012345679012,0)" xlink:href="#aM"/><use transform="matrix(0.06172839506172839,0,0,0.06172839506172839,66.60493827160494,0)" xlink:href="#T"/><use transform="matrix(0.06172839506172839,0,0,0.06172839506172839,71.48148148148148,0)" xlink:href="#ap"/><use transform="matrix(0.06172839506172839,0,0,0.06172839506172839,76.35802469135803,0)" xlink:href="#ak"/><use transform="matrix(0.06172839506172839,0,0,0.06172839506172839,88.70370370370371,0)" xlink:href="#X"/><use transform="matrix(0.06172839506172839,0,0,0.06172839506172839,101.0493827160494,0)" xlink:href="#al"/><use transform="matrix(0.06172839506172839,0,0,0.06172839506172839,113.39506172839508,0)" xlink:href="#ax"/></g><g id="O"><use transform="matrix(0.06172839506172839,0,0,0.06172839506172839,0,0)" xlink:href="#S"/><use transform="matrix(0.06172839506172839,0,0,0.06172839506172839,14.814814814814813,0)" xlink:href="#ap"/><use transform="matrix(0.06172839506172839,0,0,0.06172839506172839,19.691358024691354,0)" xlink:href="#ao"/><use transform="matrix(0.06172839506172839,0,0,0.06172839506172839,25.864197530864192,0)" xlink:href="#R"/><use transform="matrix(0.06172839506172839,0,0,0.06172839506172839,33.20987654320987,0)" xlink:href="#aM"/><use transform="matrix(0.06172839506172839,0,0,0.06172839506172839,48.02469135802468,0)" xlink:href="#T"/><use transform="matrix(0.06172839506172839,0,0,0.06172839506172839,52.90123456790123,0)" xlink:href="#ap"/><use transform="matrix(0.06172839506172839,0,0,0.06172839506172839,57.77777777777777,0)" xlink:href="#ak"/><use transform="matrix(0.06172839506172839,0,0,0.06172839506172839,70.12345679012346,0)" xlink:href="#X"/><use transform="matrix(0.06172839506172839,0,0,0.06172839506172839,82.46913580246914,0)" xlink:href="#al"/><use transform="matrix(0.06172839506172839,0,0,0.06172839506172839,94.81481481481482,0)" xlink:href="#ax"/></g></defs></g></svg>