<svg xmlns="http://www.w3.org/2000/svg" xmlns:xlink="http://www.w3.org/1999/xlink" xmlns:lucid="lucid" width="2982" height="577.17"><g transform="translate(1031 -1351.4166666666665)" lucid:page-tab-id="Umbq4tLtgqqC"><path d="M-594.74 1375.66a6 6 0 0 1 8.48 0l31.52 31.5a6 6 0 0 1 0 8.5l-31.52 31.5a6 6 0 0 1-8.48 0l-31.52-31.5a6 6 0 0 1 0-8.5z" stroke="#3a414a" fill="#fbf0ff"/><use xlink:href="#a" transform="matrix(1,0,0,1,-625.5,1376.4166666666665) translate(28.83216049382716 39.65277777777778)"/><path d="M-514.74 1457.16a6 6 0 0 1 8.48 0l31.52 31.5a6 6 0 0 1 0 8.5l-31.52 31.5a6 6 0 0 1-8.48 0l-31.52-31.5a6 6 0 0 1 0-8.5z" stroke="#3a414a" fill="#fbf0ff"/><use xlink:href="#a" transform="matrix(1,0,0,1,-545.5,1457.9166666666665) translate(28.83216049382716 39.65277777777778)"/><path d="M-594.74 1455.16a6 6 0 0 1 8.48 0l31.52 31.5a6 6 0 0 1 0 8.5l-31.52 31.5a6 6 0 0 1-8.48 0l-31.52-31.5a6 6 0 0 1 0-8.5z" stroke="#3a414a" fill="#fbf0ff"/><use xlink:href="#b" transform="matrix(1,0,0,1,-625.5,1455.9166666666665) translate(28.83216049382716 39.65277777777778)"/><path d="M-434.74 1536.66a6 6 0 0 1 8.48 0l31.52 31.5a6 6 0 0 1 0 8.5l-31.52 31.5a6 6 0 0 1-8.48 0l-31.52-31.5a6 6 0 0 1 0-8.5z" stroke="#3a414a" fill="#fbf0ff"/><use xlink:href="#a" transform="matrix(1,0,0,1,-465.5,1537.4166666666665) translate(28.83216049382716 39.65277777777778)"/><path d="M-514.74 1534.66a6 6 0 0 1 8.48 0l31.52 31.5a6 6 0 0 1 0 8.5l-31.52 31.5a6 6 0 0 1-8.48 0l-31.52-31.5a6 6 0 0 1 0-8.5z" stroke="#3a414a" fill="#fbf0ff"/><use xlink:href="#b" transform="matrix(1,0,0,1,-545.5,1535.4166666666665) translate(28.83216049382716 39.65277777777778)"/><path d="M-594.74 1536.66a6 6 0 0 1 8.48 0l31.52 31.5a6 6 0 0 1 0 8.5l-31.52 31.5a6 6 0 0 1-8.48 0l-31.52-31.5a6 6 0 0 1 0-8.5z" stroke="#3a414a" fill="#fbf0ff"/><use xlink:href="#b" transform="matrix(1,0,0,1,-625.5,1537.4166666666665) translate(28.83216049382716 39.65277777777778)"/><path d="M-354.74 1615.66a6 6 0 0 1 8.48 0l31.52 31.5a6 6 0 0 1 0 8.5l-31.52 31.5a6 6 0 0 1-8.48 0l-31.52-31.5a6 6 0 0 1 0-8.5z" stroke="#3a414a" fill="#fbf0ff"/><use xlink:href="#a" transform="matrix(1,0,0,1,-385.5,1616.4166666666665) translate(28.83216049382716 39.65277777777778)"/><path d="M-434.74 1615.66a6 6 0 0 1 8.48 0l31.52 31.5a6 6 0 0 1 0 8.5l-31.52 31.5a6 6 0 0 1-8.48 0l-31.52-31.5a6 6 0 0 1 0-8.5z" stroke="#3a414a" fill="#fbf0ff"/><use xlink:href="#b" transform="matrix(1,0,0,1,-465.5,1616.4166666666665) translate(28.83216049382716 39.65277777777778)"/><path d="M-514.74 1615.66a6 6 0 0 1 8.48 0l31.52 31.5a6 6 0 0 1 0 8.5l-31.52 31.5a6 6 0 0 1-8.48 0l-31.52-31.5a6 6 0 0 1 0-8.5z" stroke="#3a414a" fill="#fbf0ff"/><use xlink:href="#b" transform="matrix(1,0,0,1,-545.5,1616.4166666666665) translate(28.83216049382716 39.65277777777778)"/><path d="M-594.74 1615.66a6 6 0 0 1 8.48 0l31.52 31.5a6 6 0 0 1 0 8.5l-31.52 31.5a6 6 0 0 1-8.48 0l-31.52-31.5a6 6 0 0 1 0-8.5z" stroke="#3a414a" fill="#fbf0ff"/><use xlink:href="#b" transform="matrix(1,0,0,1,-625.5,1616.4166666666665) translate(28.83216049382716 39.65277777777778)"/><path d="M-550.5 1379.92a6 6 0 0 1 6-6h468a6 6 0 0 1 6 6v67.5a6 6 0 0 1-6 6h-468a6 6 0 0 1-6-6z" stroke="#3a414a" stroke-width="3" fill="#fff3d9"/><path d="M-502.5 1373.92v79.5m384-79.5v79.5" stroke="#3a414a" stroke-width="3" fill="none"/><use xlink:href="#c" transform="matrix(1,0,0,1,-485.5,1378.9166666666665) translate(145.94753086419752 39.44444444444444)"/><path d="M-470.5 1459.42a6 6 0 0 1 6-6h468a6 6 0 0 1 6 6v67.5a6 6 0 0 1-6 6h-468a6 6 0 0 1-6-6z" stroke="#3a414a" stroke-width="3" fill="#fff3d9"/><path d="M-422.5 1453.42v79.5m384-79.5v79.5" stroke="#3a414a" stroke-width="3" fill="none"/><use xlink:href="#c" transform="matrix(1,0,0,1,-405.5,1458.4166666666665) translate(145.94753086419752 39.44444444444444)"/><path d="M9.5 1459.42a6 6 0 0 1 6-6h388a6 6 0 0 1 6 6v67.5a6 6 0 0 1-6 6h-388a6 6 0 0 1-6-6z" stroke="#3a414a" stroke-width="3" fill="#ffdda6"/><path d="M49.5 1453.42v79.5m320-79.5v79.5" stroke="#3a414a" stroke-width="3" fill="none"/><use xlink:href="#d" transform="matrix(1,0,0,1,64.5,1458.4166666666665) translate(115.94753086419753 39.44444444444444)"/><path d="M-390.5 1538.92a6 6 0 0 1 6-6h468a6 6 0 0 1 6 6v67.5a6 6 0 0 1-6 6h-468a6 6 0 0 1-6-6z" stroke="#3a414a" stroke-width="3" fill="#fff3d9"/><path d="M-342.5 1532.92v79.5m384-79.5v79.5" stroke="#3a414a" stroke-width="3" fill="none"/><use xlink:href="#c" transform="matrix(1,0,0,1,-325.5,1537.9166666666665) translate(145.94753086419752 39.44444444444444)"/><path d="M89.5 1538.92a6 6 0 0 1 6-6h388a6 6 0 0 1 6 6v67.5a6 6 0 0 1-6 6h-388a6 6 0 0 1-6-6z" stroke="#3a414a" stroke-width="3" fill="#ffdda6"/><path d="M129.5 1532.92v79.5m320-79.5v79.5" stroke="#3a414a" stroke-width="3" fill="none"/><use xlink:href="#d" transform="matrix(1,0,0,1,144.5,1537.9166666666665) translate(115.94753086419753 39.44444444444444)"/><path d="M489.5 1538.92a6 6 0 0 1 6-6h388a6 6 0 0 1 6 6v67.5a6 6 0 0 1-6 6h-388a6 6 0 0 1-6-6z" stroke="#3a414a" stroke-width="3" fill="#ffdda6"/><path d="M529.5 1532.92v79.5m320-79.5v79.5" stroke="#3a414a" stroke-width="3" fill="none"/><use xlink:href="#d" transform="matrix(1,0,0,1,544.5,1537.9166666666665) translate(115.94753086419753 39.44444444444444)"/><path d="M-310.5 1618.42a6 6 0 0 1 6-6h388a6 6 0 0 1 6 6v67.5a6 6 0 0 1-6 6h-388a6 6 0 0 1-6-6z" stroke="#3a414a" stroke-width="3" fill="#ffdda6"/><path d="M-270.5 1612.42v79.5m320-79.5v79.5" stroke="#3a414a" stroke-width="3" fill="none"/><use xlink:href="#d" transform="matrix(1,0,0,1,-255.5,1617.4166666666665) translate(115.94753086419753 39.44444444444444)"/><path d="M89.5 1617.42a6 6 0 0 1 6-6h388a6 6 0 0 1 6 6v67.5a6 6 0 0 1-6 6h-388a6 6 0 0 1-6-6z" stroke="#3a414a" stroke-width="3" fill="#ffdda6"/><path d="M129.5 1611.42v79.5m320-79.5v79.5" stroke="#3a414a" stroke-width="3" fill="none"/><use xlink:href="#d" transform="matrix(1,0,0,1,144.5,1616.4166666666665) translate(115.94753086419753 39.44444444444444)"/><path d="M489.5 1617.42a6 6 0 0 1 6-6h388a6 6 0 0 1 6 6v67.5a6 6 0 0 1-6 6h-388a6 6 0 0 1-6-6z" stroke="#3a414a" stroke-width="3" fill="#ffdda6"/><path d="M529.5 1611.42v79.5m320-79.5v79.5" stroke="#3a414a" stroke-width="3" fill="none"/><use xlink:href="#d" transform="matrix(1,0,0,1,544.5,1616.4166666666665) translate(115.94753086419753 39.44444444444444)"/><path d="M889.5 1616.42a6 6 0 0 1 6-6h388a6 6 0 0 1 6 6v67.5a6 6 0 0 1-6 6h-388a6 6 0 0 1-6-6z" stroke="#3a414a" stroke-width="3" fill="#ffdda6"/><path d="M929.5 1610.42v79.5m320-79.5v79.5" stroke="#3a414a" stroke-width="3" fill="none"/><use xlink:href="#d" transform="matrix(1,0,0,1,944.5,1615.4166666666665) translate(115.94753086419753 39.44444444444444)"/><path d="M-274.74 1696.16a6 6 0 0 1 8.48 0l31.52 31.5a6 6 0 0 1 0 8.5l-31.52 31.5a6 6 0 0 1-8.48 0l-31.52-31.5a6 6 0 0 1 0-8.5z" stroke="#3a414a" fill="#fbf0ff"/><use xlink:href="#a" transform="matrix(1,0,0,1,-305.5,1696.9166666666665) translate(28.83216049382716 39.65277777777778)"/><path d="M-354.74 1696.16a6 6 0 0 1 8.48 0l31.52 31.5a6 6 0 0 1 0 8.5l-31.52 31.5a6 6 0 0 1-8.48 0l-31.52-31.5a6 6 0 0 1 0-8.5z" stroke="#3a414a" fill="#fbf0ff"/><use xlink:href="#b" transform="matrix(1,0,0,1,-385.5,1696.9166666666665) translate(28.83216049382716 39.65277777777778)"/><path d="M-434.74 1696.16a6 6 0 0 1 8.48 0l31.52 31.5a6 6 0 0 1 0 8.5l-31.52 31.5a6 6 0 0 1-8.48 0l-31.52-31.5a6 6 0 0 1 0-8.5z" stroke="#3a414a" fill="#fbf0ff"/><use xlink:href="#b" transform="matrix(1,0,0,1,-465.5,1696.9166666666665) translate(28.83216049382716 39.65277777777778)"/><path d="M-514.74 1696.16a6 6 0 0 1 8.48 0l31.52 31.5a6 6 0 0 1 0 8.5l-31.52 31.5a6 6 0 0 1-8.48 0l-31.52-31.5a6 6 0 0 1 0-8.5z" stroke="#3a414a" fill="#fbf0ff"/><use xlink:href="#b" transform="matrix(1,0,0,1,-545.5,1696.9166666666665) translate(28.83216049382716 39.65277777777778)"/><path d="M-594.74 1694.16a6 6 0 0 1 8.48 0l31.52 31.5a6 6 0 0 1 0 8.5l-31.52 31.5a6 6 0 0 1-8.48 0l-31.52-31.5a6 6 0 0 1 0-8.5z" stroke="#3a414a" fill="#fbf0ff"/><use xlink:href="#b" transform="matrix(1,0,0,1,-625.5,1694.9166666666665) translate(28.83216049382716 39.65277777777778)"/><path d="M-230.5 1698.92a6 6 0 0 1 6-6h388a6 6 0 0 1 6 6v67.5a6 6 0 0 1-6 6h-388a6 6 0 0 1-6-6z" stroke="#3a414a" stroke-width="3" fill="#ffdda6"/><path d="M-190.5 1692.92v79.5m320-79.5v79.5" stroke="#3a414a" stroke-width="3" fill="none"/><use xlink:href="#d" transform="matrix(1,0,0,1,-175.5,1697.9166666666665) translate(115.94753086419753 39.44444444444444)"/><path d="M169.5 1697.92a6 6 0 0 1 6-6h388a6 6 0 0 1 6 6v67.5a6 6 0 0 1-6 6h-388a6 6 0 0 1-6-6z" stroke="#3a414a" stroke-width="3" fill="#ffdda6"/><path d="M209.5 1691.92v79.5m320-79.5v79.5" stroke="#3a414a" stroke-width="3" fill="none"/><use xlink:href="#d" transform="matrix(1,0,0,1,224.5,1696.9166666666665) translate(115.94753086419753 39.44444444444444)"/><path d="M569.5 1697.92a6 6 0 0 1 6-6h388a6 6 0 0 1 6 6v67.5a6 6 0 0 1-6 6h-388a6 6 0 0 1-6-6z" stroke="#3a414a" stroke-width="3" fill="#ffdda6"/><path d="M609.5 1691.92v79.5m320-79.5v79.5" stroke="#3a414a" stroke-width="3" fill="none"/><use xlink:href="#d" transform="matrix(1,0,0,1,624.5,1696.9166666666665) translate(115.94753086419753 39.44444444444444)"/><path d="M969.5 1698.42a6 6 0 0 1 6-6h308a6 6 0 0 1 6 6v67.5a6 6 0 0 1-6 6h-308a6 6 0 0 1-6-6z" stroke="#3a414a" stroke-width="3" fill="#fc9432"/><path d="M1001.5 1692.42v79.5m256-79.5v79.5" stroke="#3a414a" stroke-width="3" fill="none"/><use xlink:href="#e" transform="matrix(1,0,0,1,1014.5,1697.4166666666665) translate(85.94753086419753 39.44444444444444)"/><path d="M1289.5 1698.42a6 6 0 0 1 6-6h308a6 6 0 0 1 6 6v67.5a6 6 0 0 1-6 6h-308a6 6 0 0 1-6-6z" stroke="#3a414a" stroke-width="3" fill="#fc9432"/><path d="M1321.5 1692.42v79.5m256-79.5v79.5" stroke="#3a414a" stroke-width="3" fill="none"/><use xlink:href="#e" transform="matrix(1,0,0,1,1334.5,1697.4166666666665) translate(85.94753086419753 39.44444444444444)"/><path d="M-194.74 1778.66a6 6 0 0 1 8.48 0l31.52 31.5a6 6 0 0 1 0 8.5l-31.52 31.5a6 6 0 0 1-8.48 0l-31.52-31.5a6 6 0 0 1 0-8.5z" stroke="#3a414a" fill="#fbf0ff"/><use xlink:href="#a" transform="matrix(1,0,0,1,-225.5,1779.4166666666665) translate(28.83216049382716 39.65277777777778)"/><path d="M-274.74 1778.66a6 6 0 0 1 8.48 0l31.52 31.5a6 6 0 0 1 0 8.5l-31.52 31.5a6 6 0 0 1-8.48 0l-31.52-31.5a6 6 0 0 1 0-8.5z" stroke="#3a414a" fill="#fbf0ff"/><use xlink:href="#b" transform="matrix(1,0,0,1,-305.5,1779.4166666666665) translate(28.83216049382716 39.65277777777778)"/><path d="M-354.74 1778.66a6 6 0 0 1 8.48 0l31.52 31.5a6 6 0 0 1 0 8.5l-31.52 31.5a6 6 0 0 1-8.48 0l-31.52-31.5a6 6 0 0 1 0-8.5z" stroke="#3a414a" fill="#fbf0ff"/><use xlink:href="#b" transform="matrix(1,0,0,1,-385.5,1779.4166666666665) translate(28.83216049382716 39.65277777777778)"/><path d="M-434.74 1778.66a6 6 0 0 1 8.48 0l31.52 31.5a6 6 0 0 1 0 8.5l-31.52 31.5a6 6 0 0 1-8.48 0l-31.52-31.5a6 6 0 0 1 0-8.5z" stroke="#3a414a" fill="#fbf0ff"/><use xlink:href="#b" transform="matrix(1,0,0,1,-465.5,1779.4166666666665) translate(28.83216049382716 39.65277777777778)"/><path d="M-514.74 1776.66a6 6 0 0 1 8.48 0l31.52 31.5a6 6 0 0 1 0 8.5l-31.52 31.5a6 6 0 0 1-8.48 0l-31.52-31.5a6 6 0 0 1 0-8.5z" stroke="#3a414a" fill="#fbf0ff"/><use xlink:href="#b" transform="matrix(1,0,0,1,-545.5,1777.4166666666665) translate(28.83216049382716 39.65277777777778)"/><path d="M-150.5 1780.42a6 6 0 0 1 6-6h388a6 6 0 0 1 6 6v67.5a6 6 0 0 1-6 6h-388a6 6 0 0 1-6-6z" stroke="#3a414a" stroke-width="3" fill="#ffdda6"/><path d="M-110.5 1774.42v79.5m320-79.5v79.5" stroke="#3a414a" stroke-width="3" fill="none"/><use xlink:href="#d" transform="matrix(1,0,0,1,-95.5,1779.4166666666665) translate(115.94753086419753 39.44444444444444)"/><path d="M249.5 1780.42a6 6 0 0 1 6-6h388a6 6 0 0 1 6 6v67.5a6 6 0 0 1-6 6h-388a6 6 0 0 1-6-6z" stroke="#3a414a" stroke-width="3" fill="#ffdda6"/><path d="M289.5 1774.42v79.5m320-79.5v79.5" stroke="#3a414a" stroke-width="3" fill="none"/><use xlink:href="#d" transform="matrix(1,0,0,1,304.5,1779.4166666666665) translate(115.94753086419753 39.44444444444444)"/><path d="M969.5 1781.42a6 6 0 0 1 6-6h308a6 6 0 0 1 6 6v67.5a6 6 0 0 1-6 6h-308a6 6 0 0 1-6-6z" stroke="#3a414a" stroke-width="3" fill="#fc9432"/><path d="M1001.5 1775.42v79.5m256-79.5v79.5" stroke="#3a414a" stroke-width="3" fill="none"/><use xlink:href="#e" transform="matrix(1,0,0,1,1014.5,1780.4166666666665) translate(85.94753086419753 39.44444444444444)"/><path d="M1289.5 1781.42a6 6 0 0 1 6-6h308a6 6 0 0 1 6 6v67.5a6 6 0 0 1-6 6h-308a6 6 0 0 1-6-6z" stroke="#3a414a" stroke-width="3" fill="#fc9432"/><path d="M1321.5 1775.42v79.5m256-79.5v79.5" stroke="#3a414a" stroke-width="3" fill="none"/><use xlink:href="#e" transform="matrix(1,0,0,1,1334.5,1780.4166666666665) translate(85.94753086419753 39.44444444444444)"/><path d="M-594.74 1774.16a6 6 0 0 1 8.48 0l31.52 31.5a6 6 0 0 1 0 8.5l-31.52 31.5a6 6 0 0 1-8.48 0l-31.52-31.5a6 6 0 0 1 0-8.5z" stroke="#3a414a" fill="#fbf0ff"/><use xlink:href="#b" transform="matrix(1,0,0,1,-625.5,1774.9166666666665) translate(28.83216049382716 39.65277777777778)"/><path d="M1609.5 1781.92a6 6 0 0 1 6-6h308a6 6 0 0 1 6 6v67.5a6 6 0 0 1-6 6h-308a6 6 0 0 1-6-6z" stroke="#3a414a" stroke-width="3" fill="#fc9432"/><path d="M1641.5 1775.92v79.5m256-79.5v79.5" stroke="#3a414a" stroke-width="3" fill="none"/><use xlink:href="#e" transform="matrix(1,0,0,1,1654.5,1780.9166666666665) translate(85.94753086419753 39.44444444444444)"/><path d="M649.5 1780.42a6 6 0 0 1 6-6h308a6 6 0 0 1 6 6v67.5a6 6 0 0 1-6 6h-308a6 6 0 0 1-6-6z" stroke="#3a414a" stroke-width="3" fill="#fc9432"/><path d="M681.5 1774.42v79.5m256-79.5v79.5" stroke="#3a414a" stroke-width="3" fill="none"/><use xlink:href="#e" transform="matrix(1,0,0,1,694.5,1779.4166666666665) translate(85.94753086419753 39.44444444444444)"/><path d="M-790.5 1385.75a6 6 0 0 1 6-6h168a6 6 0 0 1 6 6v51.33a6 6 0 0 1-6 6h-168a6 6 0 0 1-6-6z" stroke="#000" stroke-opacity="0" fill="#fff" fill-opacity="0"/><use xlink:href="#f" transform="matrix(1,0,0,1,-785.5,1384.75) translate(43.02469135802469 31.27777777777778)"/><path d="M-770.5 1459.42a6 6 0 0 1 6-6h128a6 6 0 0 1 6 6v51.33a6 6 0 0 1-6 6h-128a6 6 0 0 1-6-6z" stroke="#000" stroke-opacity="0" fill="#fff" fill-opacity="0"/><use xlink:href="#g" transform="matrix(1,0,0,1,-765.5,1458.4166666666665) translate(16.851851851851848 31.27777777777778)"/><path d="M-770.5 1553.08a6 6 0 0 1 6-6h128a6 6 0 0 1 6 6v51.34a6 6 0 0 1-6 6h-128a6 6 0 0 1-6-6z" stroke="#000" stroke-opacity="0" fill="#fff" fill-opacity="0"/><use xlink:href="#h" transform="matrix(1,0,0,1,-765.5,1552.083333333333) translate(16.851851851851848 31.27777777777778)"/><path d="M-770.5 1625.5a6 6 0 0 1 6-6h128a6 6 0 0 1 6 6v51.33a6 6 0 0 1-6 6h-128a6 6 0 0 1-6-6z" stroke="#000" stroke-opacity="0" fill="#fff" fill-opacity="0"/><use xlink:href="#i" transform="matrix(1,0,0,1,-765.5,1624.4999999999995) translate(29.506172839506178 31.27777777777778)"/><path d="M-770.5 1704.08a6 6 0 0 1 6-6h128a6 6 0 0 1 6 6v51.34a6 6 0 0 1-6 6h-128a6 6 0 0 1-6-6z" stroke="#000" stroke-opacity="0" fill="#fff" fill-opacity="0"/><use xlink:href="#j" transform="matrix(1,0,0,1,-765.5,1703.083333333333) translate(13.179012345679013 31.27777777777778)"/><path d="M-770.5 1777.42a6 6 0 0 1 6-6h128a6 6 0 0 1 6 6v51.33a6 6 0 0 1-6 6h-128a6 6 0 0 1-6-6z" stroke="#000" stroke-opacity="0" fill="#fff" fill-opacity="0"/><use xlink:href="#k" transform="matrix(1,0,0,1,-765.5,1776.4166666666665) translate(13.179012345679013 31.27777777777778)"/><path d="M-1010.5 1855.92a6 6 0 0 1 6-6h208a6 6 0 0 1 6 6v38a6 6 0 0 1-6 6h-208a6 6 0 0 1-6-6z" stroke="#3a414a" fill="#fff"/><use xlink:href="#l" transform="matrix(1,0,0,1,-1005.5,1854.9166666666665) translate(18.765432098765444 25.46527777777778)"/><use xlink:href="#m" transform="matrix(1,0,0,1,-1005.5,1854.9166666666665) translate(103.82716049382717 25.46527777777778)"/><path d="M-770.5 1850.75a6 6 0 0 1 6-6h128a6 6 0 0 1 6 6v51.33a6 6 0 0 1-6 6h-128a6 6 0 0 1-6-6z" stroke="#000" stroke-opacity="0" fill="#fff" fill-opacity="0"/><use xlink:href="#n" transform="matrix(1,0,0,1,-765.5,1849.75) translate(27.74691358024692 31.27777777777778)"/><defs><path fill="#3a414a" d="M27 0v-27h64v-190l-56 39v-29l58-41h29v221h61V0H27" id="o"/><use transform="matrix(0.06172839506172839,0,0,0.06172839506172839,0,0)" xlink:href="#o" id="a"/><path fill="#3a414a" d="M101-251c68 0 85 55 85 127S166 4 100 4C33 4 14-52 14-124c0-73 17-127 87-127zm-1 229c47 0 54-49 54-102s-4-102-53-102c-51 0-55 48-55 102 0 53 5 102 54 102" id="p"/><use transform="matrix(0.06172839506172839,0,0,0.06172839506172839,0,0)" xlink:href="#p" id="b"/><path fill="#3a414a" d="M115-194c53 0 69 39 70 98 0 66-23 100-70 100C84 3 66-7 56-30L54 0H23l1-261h32v101c10-23 28-34 59-34zm-8 174c40 0 45-34 45-75 0-40-5-75-45-74-42 0-51 32-51 76 0 43 10 73 51 73" id="q"/><path fill="#3a414a" d="M84 4C-5 8 30-112 23-190h32v120c0 31 7 50 39 49 72-2 45-101 50-169h31l1 190h-30c-1-10 1-25-2-33-11 22-28 36-60 37" id="r"/><path fill="#3a414a" d="M33-154v-36h34v36H33zM33 0v-36h34V0H33" id="s"/><path fill="#3a414a" d="M110-160c48 1 74 30 74 79 0 53-28 85-80 85-65 0-83-55-86-122-5-90 50-162 133-122 14 7 22 21 27 39l-31 6c-5-40-67-38-82-6-9 19-15 44-15 74 11-20 30-34 60-33zm-7 138c34 0 49-23 49-58s-16-56-50-56c-29 0-50 16-49 49 1 36 15 65 50 65" id="t"/><path fill="#3a414a" d="M24-231v-30h32v30H24zM24 0v-190h32V0H24" id="u"/><path fill="#3a414a" d="M59-47c-2 24 18 29 38 22v24C64 9 27 4 27-40v-127H5v-23h24l9-43h21v43h35v23H59v120" id="v"/><path fill="#3a414a" d="M135-143c-3-34-86-38-87 0 15 53 115 12 119 90S17 21 10-45l28-5c4 36 97 45 98 0-10-56-113-15-118-90-4-57 82-63 122-42 12 7 21 19 24 35" id="w"/><g id="c"><use transform="matrix(0.06172839506172839,0,0,0.06172839506172839,0,0)" xlink:href="#q"/><use transform="matrix(0.043209876543209874,0,0,0.043209876543209874,12.345679012345679,3.1111111111111107)" xlink:href="#r"/><use transform="matrix(0.043209876543209874,0,0,0.043209876543209874,20.98765432098765,3.1111111111111107)" xlink:href="#s"/><use transform="matrix(0.043209876543209874,0,0,0.043209876543209874,25.30864197530864,3.1111111111111107)" xlink:href="#t"/><use transform="matrix(0.043209876543209874,0,0,0.043209876543209874,33.95061728395061,3.1111111111111107)" xlink:href="#q"/><use transform="matrix(0.043209876543209874,0,0,0.043209876543209874,42.59259259259259,3.1111111111111107)" xlink:href="#u"/><use transform="matrix(0.043209876543209874,0,0,0.043209876543209874,46.00617283950617,3.1111111111111107)" xlink:href="#v"/><use transform="matrix(0.043209876543209874,0,0,0.043209876543209874,50.32716049382716,3.1111111111111107)" xlink:href="#w"/></g><path fill="#3a414a" d="M54-142c48-35 137-8 131 61C196 18 31 33 14-55l32-4c7 23 22 37 52 37 35-1 51-22 54-58 4-55-73-65-99-34H22l8-134h141v27H59" id="x"/><g id="d"><use transform="matrix(0.06172839506172839,0,0,0.06172839506172839,0,0)" xlink:href="#q"/><use transform="matrix(0.043209876543209874,0,0,0.043209876543209874,12.345679012345679,3.1111111111111107)" xlink:href="#r"/><use transform="matrix(0.043209876543209874,0,0,0.043209876543209874,20.98765432098765,3.1111111111111107)" xlink:href="#s"/><use transform="matrix(0.043209876543209874,0,0,0.043209876543209874,25.30864197530864,3.1111111111111107)" xlink:href="#x"/><use transform="matrix(0.043209876543209874,0,0,0.043209876543209874,33.95061728395061,3.1111111111111107)" xlink:href="#q"/><use transform="matrix(0.043209876543209874,0,0,0.043209876543209874,42.59259259259259,3.1111111111111107)" xlink:href="#u"/><use transform="matrix(0.043209876543209874,0,0,0.043209876543209874,46.00617283950617,3.1111111111111107)" xlink:href="#v"/><use transform="matrix(0.043209876543209874,0,0,0.043209876543209874,50.32716049382716,3.1111111111111107)" xlink:href="#w"/></g><path fill="#3a414a" d="M155-56V0h-30v-56H8v-25l114-167h33v167h35v25h-35zm-30-156c-27 46-58 90-88 131h88v-131" id="y"/><g id="e"><use transform="matrix(0.06172839506172839,0,0,0.06172839506172839,0,0)" xlink:href="#q"/><use transform="matrix(0.043209876543209874,0,0,0.043209876543209874,12.345679012345679,3.1111111111111107)" xlink:href="#r"/><use transform="matrix(0.043209876543209874,0,0,0.043209876543209874,20.98765432098765,3.1111111111111107)" xlink:href="#s"/><use transform="matrix(0.043209876543209874,0,0,0.043209876543209874,25.30864197530864,3.1111111111111107)" xlink:href="#y"/><use transform="matrix(0.043209876543209874,0,0,0.043209876543209874,33.95061728395061,3.1111111111111107)" xlink:href="#q"/><use transform="matrix(0.043209876543209874,0,0,0.043209876543209874,42.59259259259259,3.1111111111111107)" xlink:href="#u"/><use transform="matrix(0.043209876543209874,0,0,0.043209876543209874,46.00617283950617,3.1111111111111107)" xlink:href="#v"/><use transform="matrix(0.043209876543209874,0,0,0.043209876543209874,50.32716049382716,3.1111111111111107)" xlink:href="#w"/></g><path fill="#3a414a" d="M118-107v75H92v-75H18v-26h74v-75h26v75h74v26h-74" id="z"/><path fill="#3a414a" d="M80-196l47-18 7 23-49 13 32 44-20 13-27-46-27 45-21-12 33-44-49-13 8-23 47 19-2-53h23" id="A"/><path fill="#3a414a" d="M18-150v-26h174v26H18zm0 90v-26h174v26H18" id="B"/><path fill="#3a414a" d="M64 0c3-98 48-159 88-221H18v-27h164v26C143-157 98-101 97 0H64" id="C"/><g id="f"><use transform="matrix(0.06172839506172839,0,0,0.06172839506172839,0,0)" xlink:href="#o"/><use transform="matrix(0.06172839506172839,0,0,0.06172839506172839,12.345679012345679,0)" xlink:href="#z"/><use transform="matrix(0.06172839506172839,0,0,0.06172839506172839,25.30864197530864,0)" xlink:href="#t"/><use transform="matrix(0.06172839506172839,0,0,0.06172839506172839,37.654320987654316,0)" xlink:href="#A"/><use transform="matrix(0.06172839506172839,0,0,0.06172839506172839,46.29629629629629,0)" xlink:href="#o"/><use transform="matrix(0.06172839506172839,0,0,0.06172839506172839,58.64197530864197,0)" xlink:href="#B"/><use transform="matrix(0.06172839506172839,0,0,0.06172839506172839,71.60493827160494,0)" xlink:href="#C"/></g><path fill="#3a414a" d="M101-251c82-7 93 87 43 132L82-64C71-53 59-42 53-27h129V0H18c2-99 128-94 128-182 0-28-16-43-45-43s-46 15-49 41l-32-3c6-41 34-60 81-64" id="D"/><path fill="#3a414a" d="M126-127c33 6 58 20 58 59 0 88-139 92-164 29-3-8-5-16-6-25l32-3c6 27 21 44 54 44 32 0 52-15 52-46 0-38-36-46-79-43v-28c39 1 72-4 72-42 0-27-17-43-46-43-28 0-47 15-49 41l-32-3c6-42 35-63 81-64 48-1 79 21 79 65 0 36-21 52-52 59" id="E"/><g id="g"><use transform="matrix(0.06172839506172839,0,0,0.06172839506172839,0,0)" xlink:href="#o"/><use transform="matrix(0.06172839506172839,0,0,0.06172839506172839,12.345679012345679,0)" xlink:href="#z"/><use transform="matrix(0.06172839506172839,0,0,0.06172839506172839,25.30864197530864,0)" xlink:href="#t"/><use transform="matrix(0.06172839506172839,0,0,0.06172839506172839,37.654320987654316,0)" xlink:href="#A"/><use transform="matrix(0.06172839506172839,0,0,0.06172839506172839,46.29629629629629,0)" xlink:href="#D"/><use transform="matrix(0.06172839506172839,0,0,0.06172839506172839,58.64197530864197,0)" xlink:href="#B"/><use transform="matrix(0.06172839506172839,0,0,0.06172839506172839,71.60493827160494,0)" xlink:href="#o"/><use transform="matrix(0.06172839506172839,0,0,0.06172839506172839,83.95061728395062,0)" xlink:href="#E"/></g><path fill="#3a414a" d="M99-251c64 0 84 50 84 122C183-37 130 33 47-8c-14-7-20-23-25-40l30-5c6 39 69 39 84 7 9-19 16-44 16-74-10 22-31 35-62 35-49 0-73-33-73-83 0-54 28-83 82-83zm-1 141c31-1 51-18 51-49 0-36-14-67-51-67-34 0-49 23-49 58 0 34 15 58 49 58" id="F"/><g id="h"><use transform="matrix(0.06172839506172839,0,0,0.06172839506172839,0,0)" xlink:href="#o"/><use transform="matrix(0.06172839506172839,0,0,0.06172839506172839,12.345679012345679,0)" xlink:href="#z"/><use transform="matrix(0.06172839506172839,0,0,0.06172839506172839,25.30864197530864,0)" xlink:href="#t"/><use transform="matrix(0.06172839506172839,0,0,0.06172839506172839,37.654320987654316,0)" xlink:href="#A"/><use transform="matrix(0.06172839506172839,0,0,0.06172839506172839,46.29629629629629,0)" xlink:href="#E"/><use transform="matrix(0.06172839506172839,0,0,0.06172839506172839,58.64197530864197,0)" xlink:href="#B"/><use transform="matrix(0.06172839506172839,0,0,0.06172839506172839,71.60493827160494,0)" xlink:href="#o"/><use transform="matrix(0.06172839506172839,0,0,0.06172839506172839,83.95061728395062,0)" xlink:href="#F"/></g><g id="i"><use transform="matrix(0.06172839506172839,0,0,0.06172839506172839,0,0)" xlink:href="#t"/><use transform="matrix(0.06172839506172839,0,0,0.06172839506172839,12.345679012345679,0)" xlink:href="#A"/><use transform="matrix(0.06172839506172839,0,0,0.06172839506172839,20.98765432098765,0)" xlink:href="#y"/><use transform="matrix(0.06172839506172839,0,0,0.06172839506172839,33.33333333333333,0)" xlink:href="#B"/><use transform="matrix(0.06172839506172839,0,0,0.06172839506172839,46.29629629629629,0)" xlink:href="#D"/><use transform="matrix(0.06172839506172839,0,0,0.06172839506172839,58.64197530864197,0)" xlink:href="#y"/></g><path fill="#3a414a" d="M16-82v-28h88v28H16" id="G"/><path fill="#3a414a" d="M134-131c28 9 52 24 51 62-1 50-34 73-85 73S17-19 16-69c0-36 21-54 49-61-75-25-45-126 34-121 46 3 78 18 79 63 0 33-17 51-44 57zm-34-11c31 1 46-15 46-44 0-28-17-43-47-42-29 0-46 13-45 42 1 28 16 44 46 44zm1 122c35 0 51-18 51-52 0-30-18-46-53-46-33 0-51 17-51 47 0 34 19 51 53 51" id="H"/><g id="j"><use transform="matrix(0.06172839506172839,0,0,0.06172839506172839,0,0)" xlink:href="#G"/><use transform="matrix(0.06172839506172839,0,0,0.06172839506172839,7.345679012345679,0)" xlink:href="#D"/><use transform="matrix(0.06172839506172839,0,0,0.06172839506172839,19.691358024691358,0)" xlink:href="#z"/><use transform="matrix(0.06172839506172839,0,0,0.06172839506172839,32.654320987654316,0)" xlink:href="#t"/><use transform="matrix(0.06172839506172839,0,0,0.06172839506172839,44.99999999999999,0)" xlink:href="#A"/><use transform="matrix(0.06172839506172839,0,0,0.06172839506172839,53.64197530864197,0)" xlink:href="#x"/><use transform="matrix(0.06172839506172839,0,0,0.06172839506172839,65.98765432098764,0)" xlink:href="#B"/><use transform="matrix(0.06172839506172839,0,0,0.06172839506172839,78.9506172839506,0)" xlink:href="#D"/><use transform="matrix(0.06172839506172839,0,0,0.06172839506172839,91.29629629629629,0)" xlink:href="#H"/></g><g id="k"><use transform="matrix(0.06172839506172839,0,0,0.06172839506172839,0,0)" xlink:href="#G"/><use transform="matrix(0.06172839506172839,0,0,0.06172839506172839,7.345679012345679,0)" xlink:href="#y"/><use transform="matrix(0.06172839506172839,0,0,0.06172839506172839,19.691358024691358,0)" xlink:href="#z"/><use transform="matrix(0.06172839506172839,0,0,0.06172839506172839,32.654320987654316,0)" xlink:href="#t"/><use transform="matrix(0.06172839506172839,0,0,0.06172839506172839,44.99999999999999,0)" xlink:href="#A"/><use transform="matrix(0.06172839506172839,0,0,0.06172839506172839,53.64197530864197,0)" xlink:href="#t"/><use transform="matrix(0.06172839506172839,0,0,0.06172839506172839,65.98765432098764,0)" xlink:href="#B"/><use transform="matrix(0.06172839506172839,0,0,0.06172839506172839,78.9506172839506,0)" xlink:href="#E"/><use transform="matrix(0.06172839506172839,0,0,0.06172839506172839,91.29629629629629,0)" xlink:href="#D"/></g><path fill="#3a414a" d="M143 4C61 4 22-44 18-125c-5-107 100-154 193-111 17 8 29 25 37 43l-32 9c-13-25-37-40-76-40-61 0-88 39-88 99 0 61 29 100 91 101 35 0 62-11 79-27v-45h-74v-28h105v86C228-13 192 4 143 4" id="I"/><path fill="#3a414a" d="M100-194c63 0 86 42 84 106H49c0 40 14 67 53 68 26 1 43-12 49-29l28 8c-11 28-37 45-77 45C44 4 14-33 15-96c1-61 26-98 85-98zm52 81c6-60-76-77-97-28-3 7-6 17-6 28h103" id="J"/><path fill="#3a414a" d="M117-194c89-4 53 116 60 194h-32v-121c0-31-8-49-39-48C34-167 62-67 57 0H25l-1-190h30c1 10-1 24 2 32 11-22 29-35 61-36" id="K"/><path fill="#3a414a" d="M114-163C36-179 61-72 57 0H25l-1-190h30c1 12-1 29 2 39 6-27 23-49 58-41v29" id="L"/><path fill="#3a414a" d="M141-36C126-15 110 5 73 4 37 3 15-17 15-53c-1-64 63-63 125-63 3-35-9-54-41-54-24 1-41 7-42 31l-33-3c5-37 33-52 76-52 45 0 72 20 72 64v82c-1 20 7 32 28 27v20c-31 9-61-2-59-35zM48-53c0 20 12 33 32 33 41-3 63-29 60-74-43 2-92-5-92 41" id="M"/><path fill="#3a414a" d="M24 0v-261h32V0H24" id="N"/><g id="l"><use transform="matrix(0.06172839506172839,0,0,0.06172839506172839,0,0)" xlink:href="#I"/><use transform="matrix(0.06172839506172839,0,0,0.06172839506172839,17.28395061728395,0)" xlink:href="#J"/><use transform="matrix(0.06172839506172839,0,0,0.06172839506172839,29.629629629629626,0)" xlink:href="#K"/><use transform="matrix(0.06172839506172839,0,0,0.06172839506172839,41.9753086419753,0)" xlink:href="#J"/><use transform="matrix(0.06172839506172839,0,0,0.06172839506172839,54.32098765432098,0)" xlink:href="#L"/><use transform="matrix(0.06172839506172839,0,0,0.06172839506172839,61.66666666666666,0)" xlink:href="#M"/><use transform="matrix(0.06172839506172839,0,0,0.06172839506172839,74.01234567901234,0)" xlink:href="#N"/></g><path fill="#3a414a" d="M63-220v92h138v28H63V0H30v-248h175v28H63" id="O"/><path fill="#3a414a" d="M100-194c62-1 85 37 85 99 1 63-27 99-86 99S16-35 15-95c0-66 28-99 85-99zM99-20c44 1 53-31 53-75 0-43-8-75-51-75s-53 32-53 75 10 74 51 75" id="P"/><path fill="#3a414a" d="M210-169c-67 3-38 105-44 169h-31v-121c0-29-5-50-35-48C34-165 62-65 56 0H25l-1-190h30c1 10-1 24 2 32 10-44 99-50 107 0 11-21 27-35 58-36 85-2 47 119 55 194h-31v-121c0-29-5-49-35-48" id="Q"/><g id="m"><use transform="matrix(0.06172839506172839,0,0,0.06172839506172839,0,0)" xlink:href="#O"/><use transform="matrix(0.06172839506172839,0,0,0.06172839506172839,13.518518518518517,0)" xlink:href="#P"/><use transform="matrix(0.06172839506172839,0,0,0.06172839506172839,25.864197530864196,0)" xlink:href="#L"/><use transform="matrix(0.06172839506172839,0,0,0.06172839506172839,33.20987654320987,0)" xlink:href="#Q"/><use transform="matrix(0.06172839506172839,0,0,0.06172839506172839,51.66666666666666,0)" xlink:href="#r"/><use transform="matrix(0.06172839506172839,0,0,0.06172839506172839,64.01234567901234,0)" xlink:href="#N"/><use transform="matrix(0.06172839506172839,0,0,0.06172839506172839,68.88888888888889,0)" xlink:href="#M"/><use transform="matrix(0.06172839506172839,0,0,0.06172839506172839,81.23456790123457,0)" xlink:href="#s"/></g><path fill="#3a414a" d="M23 0v-37h61v-169l-59 37v-38l62-41h46v211h57V0H23" id="R"/><path fill="#3a414a" d="M125-100v72H85v-72H15v-39h70v-72h40v72h71v39h-71" id="S"/><path fill="#3a414a" d="M135-194c52 0 70 43 70 98 0 56-19 99-73 100-30 1-46-15-58-35L72 0H24l1-261h50v104c11-23 29-37 60-37zM114-30c31 0 40-27 40-66 0-37-7-63-39-63s-41 28-41 65c0 36 8 64 40 64" id="T"/><path fill="#3a414a" d="M85 4C-2 5 27-109 22-190h50c7 57-23 150 33 157 60-5 35-97 40-157h50l1 190h-47c-2-12 1-28-3-38-12 25-28 42-61 42" id="U"/><path fill="#3a414a" d="M86-200l42-18 12 35-44 11 32 37-32 21-26-44-26 44-32-21 33-37-44-11 12-35 42 18-3-48h38" id="V"/><path fill="#3a414a" d="M88-194c31-1 46 15 58 34l-1-101h50l1 261h-48c-2-10 0-23-3-31C134-8 116 4 84 4 32 4 16-41 15-95c0-56 19-97 73-99zm17 164c33 0 40-30 41-66 1-37-9-64-41-64s-38 30-39 65c0 43 13 65 39 65" id="W"/><g id="n"><use transform="matrix(0.06172839506172839,0,0,0.06172839506172839,0,0)" xlink:href="#R"/><use transform="matrix(0.06172839506172839,0,0,0.06172839506172839,12.345679012345679,0)" xlink:href="#S"/><use transform="matrix(0.06172839506172839,0,0,0.06172839506172839,25.30864197530864,0)" xlink:href="#T"/><use transform="matrix(0.06172839506172839,0,0,0.06172839506172839,38.82716049382716,0)" xlink:href="#U"/><use transform="matrix(0.06172839506172839,0,0,0.06172839506172839,52.34567901234568,0)" xlink:href="#V"/><use transform="matrix(0.06172839506172839,0,0,0.06172839506172839,60.98765432098765,0)" xlink:href="#W"/></g></defs></g></svg>