<svg xmlns="http://www.w3.org/2000/svg" xmlns:xlink="http://www.w3.org/1999/xlink" xmlns:lucid="lucid" width="1902" height="541.12"><g transform="translate(1080.4999999999995 -1399.5)" lucid:page-tab-id="Umbq4tLtgqqC"><path d="M-1500 1000h2500v1000h-2500z" fill="#fff"/><path d="M-780 1806a6 6 0 0 1 6-6h128a6 6 0 0 1 6 6v27a6 6 0 0 1-6 6h-128a6 6 0 0 1-6-6z" stroke="#000" stroke-opacity="0" fill="#fff" fill-opacity="0"/><use xlink:href="#a" transform="matrix(1,0,0,1,-775,1805) translate(14.012345679012341 19.65277777777778)"/><path d="M-544.2 1646.8a5.85 5.85 0 0 1 8.4 0l11.6 11.9a6.15 6.15 0 0 1 0 8.6l-11.6 11.9a5.85 5.85 0 0 1-8.4 0l-11.6-11.9a6.15 6.15 0 0 1 0-8.6z" stroke="#3a414a" fill="#fbf0ff"/><use xlink:href="#b" transform="matrix(1,0,0,1,-554.9999999999998,1647.5) translate(8.83216049382716 19.787777777777777)"/><path d="M-584.2 1646.8a5.85 5.85 0 0 1 8.4 0l11.6 11.9a6.15 6.15 0 0 1 0 8.6l-11.6 11.9a5.85 5.85 0 0 1-8.4 0l-11.6-11.9a6.15 6.15 0 0 1 0-8.6z" stroke="#3a414a" fill="#fbf0ff"/><use xlink:href="#b" transform="matrix(1,0,0,1,-594.9999999999998,1647.5) translate(8.83216049382716 19.787777777777777)"/><path d="M-560 1847.75a6 6 0 0 1 6-6h188a6 6 0 0 1 6 6V1873a6 6 0 0 1-6 6h-188a6 6 0 0 1-6-6z" stroke="#3a414a" stroke-width="3" fill="#ffdda6"/><use xlink:href="#c" transform="matrix(1,0,0,1,-555,1846.7525749318972) translate(56.141975308641975 19.52777777777778)"/><path d="M-624.2 1646.8a5.85 5.85 0 0 1 8.4 0l11.6 11.9a6.15 6.15 0 0 1 0 8.6l-11.6 11.9a5.85 5.85 0 0 1-8.4 0l-11.6-11.9a6.15 6.15 0 0 1 0-8.6z" stroke="#3a414a" fill="#fbf0ff"/><use xlink:href="#b" transform="matrix(1,0,0,1,-634.9999999999998,1647.5) translate(8.83216049382716 19.787777777777777)"/><path d="M-780 1844a6 6 0 0 1 6-6h128a6 6 0 0 1 6 6v29a6 6 0 0 1-6 6h-128a6 6 0 0 1-6-6z" stroke="#000" stroke-opacity="0" fill="#fff" fill-opacity="0"/><use xlink:href="#d" transform="matrix(1,0,0,1,-775,1843) translate(3.3333333333333286 19.77777777777778)"/><path d="M-424.2 1646.8a5.85 5.85 0 0 1 8.4 0l11.6 11.9a6.15 6.15 0 0 1 0 8.6l-11.6 11.9a5.85 5.85 0 0 1-8.4 0l-11.6-11.9a6.15 6.15 0 0 1 0-8.6z" stroke="#3a414a" fill="#fbf0ff"/><use xlink:href="#b" transform="matrix(1,0,0,1,-434.9999999999998,1647.5) translate(8.83216049382716 19.787777777777777)"/><path d="M-464.2 1646.8a5.85 5.85 0 0 1 8.4 0l11.6 11.9a6.15 6.15 0 0 1 0 8.6l-11.6 11.9a5.85 5.85 0 0 1-8.4 0l-11.6-11.9a6.15 6.15 0 0 1 0-8.6z" stroke="#3a414a" fill="#fbf0ff"/><use xlink:href="#b" transform="matrix(1,0,0,1,-474.9999999999998,1647.5) translate(8.83216049382716 19.787777777777777)"/><path d="M-504.2 1646.8a5.85 5.85 0 0 1 8.4 0l11.6 11.9a6.15 6.15 0 0 1 0 8.6l-11.6 11.9a5.85 5.85 0 0 1-8.4 0l-11.6-11.9a6.15 6.15 0 0 1 0-8.6z" stroke="#3a414a" fill="#fbf0ff"/><use xlink:href="#b" transform="matrix(1,0,0,1,-514.9999999999998,1647.5) translate(8.83216049382716 19.787777777777777)"/><path d="M-384.2 1646.8a5.85 5.85 0 0 1 8.4 0l11.6 11.9a6.15 6.15 0 0 1 0 8.6l-11.6 11.9a5.85 5.85 0 0 1-8.4 0l-11.6-11.9a6.15 6.15 0 0 1 0-8.6z" stroke="#3a414a" fill="#fbf0ff"/><use xlink:href="#e" transform="matrix(1,0,0,1,-394.9999999999997,1647.5) translate(8.83216049382716 19.787777777777777)"/><path d="M40 1847.75a6 6 0 0 1 6-6h148a6 6 0 0 1 6 6V1873a6 6 0 0 1-6 6H46a6 6 0 0 1-6-6z" stroke="#3a414a" stroke-width="3" fill="#fc9432"/><use xlink:href="#f" transform="matrix(1,0,0,1,45,1846.7525749318972) translate(36.141975308641975 19.52777777777778)"/><path d="M-400 1691.45a6 6 0 0 1 6-6h228a6 6 0 0 1 6 6v26.05a6 6 0 0 1-6 6h-228a6 6 0 0 1-6-6z" stroke="#3a414a" stroke-width="3" fill="#fff3d9"/><use xlink:href="#g" transform="matrix(1,0,0,1,-395,1690.4523809523807) translate(76.14197530864197 19.59027777777778)"/><path d="M-360 1847.75a6 6 0 0 1 6-6h188a6 6 0 0 1 6 6V1873a6 6 0 0 1-6 6h-188a6 6 0 0 1-6-6z" stroke="#3a414a" stroke-width="3" fill="#ffdda6"/><use xlink:href="#c" transform="matrix(1,0,0,1,-355,1846.7525749318972) translate(56.141975308641975 19.52777777777778)"/><path d="M200 1847.75a6 6 0 0 1 6-6h148a6 6 0 0 1 6 6V1873a6 6 0 0 1-6 6H206a6 6 0 0 1-6-6z" stroke="#3a414a" stroke-width="3" fill="#fc9432"/><use xlink:href="#f" transform="matrix(1,0,0,1,204.9999999999999,1846.7525749318972) translate(36.141975308641975 19.52777777777778)"/><path d="M360 1847.75a6 6 0 0 1 6-6h148a6 6 0 0 1 6 6V1873a6 6 0 0 1-6 6H366a6 6 0 0 1-6-6z" stroke="#3a414a" stroke-width="3" fill="#fc9432"/><use xlink:href="#f" transform="matrix(1,0,0,1,364.9999999999999,1846.7525749318972) translate(36.141975308641975 19.52777777777778)"/><path d="M520 1847.75a6 6 0 0 1 6-6h148a6 6 0 0 1 6 6V1873a6 6 0 0 1-6 6H526a6 6 0 0 1-6-6z" stroke="#3a414a" stroke-width="3" fill="#fc9432"/><use xlink:href="#f" transform="matrix(1,0,0,1,525,1846.7525749318972) translate(36.141975308641975 19.52777777777778)"/><path d="M-120 1810.6a6 6 0 0 1 6-6H74a6 6 0 0 1 6 6v25.24a6 6 0 0 1-6 6h-188a6 6 0 0 1-6-6z" stroke="#3a414a" stroke-width="3" fill="#ffdda6"/><use xlink:href="#c" transform="matrix(1,0,0,1,-114.99999999999929,1809.5966760816457) translate(56.141975308641975 19.52777777777778)"/><path d="M280 1810.6a6 6 0 0 1 6-6h148a6 6 0 0 1 6 6v25.24a6 6 0 0 1-6 6H286a6 6 0 0 1-6-6z" stroke="#3a414a" stroke-width="3" fill="#fc9432"/><use xlink:href="#f" transform="matrix(1,0,0,1,285.00000000000045,1809.5966760816457) translate(36.141975308641975 19.52777777777778)"/><path d="M80 1810.6a6 6 0 0 1 6-6h188a6 6 0 0 1 6 6v25.24a6 6 0 0 1-6 6H86a6 6 0 0 1-6-6z" stroke="#3a414a" stroke-width="3" fill="#ffdda6"/><use xlink:href="#c" transform="matrix(1,0,0,1,85.0000000000006,1809.5966760816457) translate(56.141975308641975 19.52777777777778)"/><path d="M440 1810.6a6 6 0 0 1 6-6h148a6 6 0 0 1 6 6v25.24a6 6 0 0 1-6 6H446a6 6 0 0 1-6-6z" stroke="#3a414a" stroke-width="3" fill="#fc9432"/><use xlink:href="#f" transform="matrix(1,0,0,1,445.00000000000034,1809.5966760816457) translate(36.141975308641975 19.52777777777778)"/><path d="M-584.2 1686.8a5.85 5.85 0 0 1 8.4 0l11.6 11.9a6.15 6.15 0 0 1 0 8.6l-11.6 11.9a5.85 5.85 0 0 1-8.4 0l-11.6-11.9a6.15 6.15 0 0 1 0-8.6z" stroke="#3a414a" fill="#fbf0ff"/><use xlink:href="#b" transform="matrix(1,0,0,1,-594.9999999999998,1687.5) translate(8.83216049382716 19.787777777777777)"/><path d="M-624.2 1686.8a5.85 5.85 0 0 1 8.4 0l11.6 11.9a6.15 6.15 0 0 1 0 8.6l-11.6 11.9a5.85 5.85 0 0 1-8.4 0l-11.6-11.9a6.15 6.15 0 0 1 0-8.6z" stroke="#3a414a" fill="#fbf0ff"/><use xlink:href="#b" transform="matrix(1,0,0,1,-634.9999999999998,1687.5) translate(8.83216049382716 19.787777777777777)"/><path d="M-464.2 1686.8a5.85 5.85 0 0 1 8.4 0l11.6 11.9a6.15 6.15 0 0 1 0 8.6l-11.6 11.9a5.85 5.85 0 0 1-8.4 0l-11.6-11.9a6.15 6.15 0 0 1 0-8.6z" stroke="#3a414a" fill="#fbf0ff"/><use xlink:href="#b" transform="matrix(1,0,0,1,-474.9999999999998,1687.5) translate(8.83216049382716 19.787777777777777)"/><path d="M-504.2 1686.8a5.85 5.85 0 0 1 8.4 0l11.6 11.9a6.15 6.15 0 0 1 0 8.6l-11.6 11.9a5.85 5.85 0 0 1-8.4 0l-11.6-11.9a6.15 6.15 0 0 1 0-8.6z" stroke="#3a414a" fill="#fbf0ff"/><use xlink:href="#b" transform="matrix(1,0,0,1,-514.9999999999998,1687.5) translate(8.83216049382716 19.787777777777777)"/><path d="M-544.2 1686.8a5.85 5.85 0 0 1 8.4 0l11.6 11.9a6.15 6.15 0 0 1 0 8.6l-11.6 11.9a5.85 5.85 0 0 1-8.4 0l-11.6-11.9a6.15 6.15 0 0 1 0-8.6z" stroke="#3a414a" fill="#fbf0ff"/><use xlink:href="#b" transform="matrix(1,0,0,1,-554.9999999999998,1687.5) translate(8.83216049382716 19.787777777777777)"/><path d="M-424.2 1686.8a5.85 5.85 0 0 1 8.4 0l11.6 11.9a6.15 6.15 0 0 1 0 8.6l-11.6 11.9a5.85 5.85 0 0 1-8.4 0l-11.6-11.9a6.15 6.15 0 0 1 0-8.6z" stroke="#3a414a" fill="#fbf0ff"/><use xlink:href="#e" transform="matrix(1,0,0,1,-434.9999999999998,1687.5) translate(8.83216049382716 19.787777777777777)"/><path d="M-520 1810.6a6 6 0 0 1 6-6h188a6 6 0 0 1 6 6v25.24a6 6 0 0 1-6 6h-188a6 6 0 0 1-6-6z" stroke="#3a414a" stroke-width="3" fill="#ffdda6"/><use xlink:href="#c" transform="matrix(1,0,0,1,-514.9999999999992,1809.5966760816457) translate(56.141975308641975 19.52777777777778)"/><path d="M-320 1810.6a6 6 0 0 1 6-6h188a6 6 0 0 1 6 6v25.24a6 6 0 0 1-6 6h-188a6 6 0 0 1-6-6z" stroke="#3a414a" stroke-width="3" fill="#ffdda6"/><use xlink:href="#c" transform="matrix(1,0,0,1,-314.9999999999993,1809.5966760816457) translate(56.141975308641975 19.52777777777778)"/><path d="M-80 1768.9a6 6 0 0 1 6-6h188a6 6 0 0 1 6 6v27.05a6 6 0 0 1-6 6H-74a6 6 0 0 1-6-6z" stroke="#3a414a" stroke-width="3" fill="#ffdda6"/><use xlink:href="#c" transform="matrix(1,0,0,1,-74.99999999999952,1767.9047619047617) translate(56.141975308641975 19.65277777777778)"/><path d="M320 1770.7a6 6 0 0 1 6-6h148a6 6 0 0 1 6 6v25.25a6 6 0 0 1-6 6H326a6 6 0 0 1-6-6z" stroke="#3a414a" stroke-width="3" fill="#fc9432"/><use xlink:href="#f" transform="matrix(1,0,0,1,325.00000000000045,1769.704955884278) translate(36.141975308641975 19.52777777777778)"/><path d="M120 1770.7a6 6 0 0 1 6-6h188a6 6 0 0 1 6 6v25.25a6 6 0 0 1-6 6H126a6 6 0 0 1-6-6z" stroke="#3a414a" stroke-width="3" fill="#ffdda6"/><use xlink:href="#c" transform="matrix(1,0,0,1,125.00000000000037,1769.704955884278) translate(56.141975308641975 19.52777777777778)"/><path d="M-624.2 1726.3a5.85 5.85 0 0 1 8.4 0l11.6 11.9a6.15 6.15 0 0 1 0 8.6l-11.6 11.9a5.85 5.85 0 0 1-8.4 0l-11.6-11.9a6.15 6.15 0 0 1 0-8.6z" stroke="#3a414a" fill="#fbf0ff"/><use xlink:href="#b" transform="matrix(1,0,0,1,-635,1727) translate(8.83216049382716 19.787777777777777)"/><path d="M-504.2 1726.3a5.85 5.85 0 0 1 8.4 0l11.6 11.9a6.15 6.15 0 0 1 0 8.6l-11.6 11.9a5.85 5.85 0 0 1-8.4 0l-11.6-11.9a6.15 6.15 0 0 1 0-8.6z" stroke="#3a414a" fill="#fbf0ff"/><use xlink:href="#b" transform="matrix(1,0,0,1,-515,1727) translate(8.83216049382716 19.787777777777777)"/><path d="M-544.2 1726.3a5.85 5.85 0 0 1 8.4 0l11.6 11.9a6.15 6.15 0 0 1 0 8.6l-11.6 11.9a5.85 5.85 0 0 1-8.4 0l-11.6-11.9a6.15 6.15 0 0 1 0-8.6z" stroke="#3a414a" fill="#fbf0ff"/><use xlink:href="#b" transform="matrix(1,0,0,1,-555,1727) translate(8.83216049382716 19.787777777777777)"/><path d="M-584.2 1726.3a5.85 5.85 0 0 1 8.4 0l11.6 11.9a6.15 6.15 0 0 1 0 8.6l-11.6 11.9a5.85 5.85 0 0 1-8.4 0l-11.6-11.9a6.15 6.15 0 0 1 0-8.6z" stroke="#3a414a" fill="#fbf0ff"/><use xlink:href="#b" transform="matrix(1,0,0,1,-595,1727) translate(8.83216049382716 19.787777777777777)"/><path d="M-464.2 1726.3a5.85 5.85 0 0 1 8.4 0l11.6 11.9a6.15 6.15 0 0 1 0 8.6l-11.6 11.9a5.85 5.85 0 0 1-8.4 0l-11.6-11.9a6.15 6.15 0 0 1 0-8.6z" stroke="#3a414a" fill="#fbf0ff"/><use xlink:href="#e" transform="matrix(1,0,0,1,-475,1727) translate(8.83216049382716 19.787777777777777)"/><path d="M-480 1768.95a6 6 0 0 1 6-6h188a6 6 0 0 1 6 6v27a6 6 0 0 1-6 6h-188a6 6 0 0 1-6-6z" stroke="#3a414a" stroke-width="3" fill="#ffdda6"/><use xlink:href="#c" transform="matrix(1,0,0,1,-474.99999999999943,1767.9523809523807) translate(56.141975308641975 19.59027777777778)"/><path d="M-280 1768.9a6 6 0 0 1 6-6h188a6 6 0 0 1 6 6v27.05a6 6 0 0 1-6 6h-188a6 6 0 0 1-6-6z" stroke="#3a414a" stroke-width="3" fill="#ffdda6"/><use xlink:href="#c" transform="matrix(1,0,0,1,-274.99999999999955,1767.9047619047617) translate(56.141975308641975 19.65277777777778)"/><path d="M-40 1731.75a6 6 0 0 1 6-6h188a6 6 0 0 1 6 6V1757a6 6 0 0 1-6 6H-34a6 6 0 0 1-6-6z" stroke="#3a414a" stroke-width="3" fill="#ffdda6"/><use xlink:href="#c" transform="matrix(1,0,0,1,-34.999999999999915,1730.7525749318972) translate(56.141975308641975 19.52777777777778)"/><path d="M160 1731.75a6 6 0 0 1 6-6h188a6 6 0 0 1 6 6V1757a6 6 0 0 1-6 6H166a6 6 0 0 1-6-6z" stroke="#3a414a" stroke-width="3" fill="#ffdda6"/><use xlink:href="#c" transform="matrix(1,0,0,1,165.00000000000003,1730.7525749318972) translate(56.141975308641975 19.52777777777778)"/><path d="M-544.2 1765.25a5.85 5.85 0 0 1 8.4 0l11.6 11.9a6.15 6.15 0 0 1 0 8.6l-11.6 11.9a5.85 5.85 0 0 1-8.4 0l-11.6-11.9a6.15 6.15 0 0 1 0-8.6z" stroke="#3a414a" fill="#fbf0ff"/><use xlink:href="#b" transform="matrix(1,0,0,1,-554.9999999999998,1765.9523809523807) translate(8.83216049382716 19.787777777777777)"/><path d="M-584.2 1765.25a5.85 5.85 0 0 1 8.4 0l11.6 11.9a6.15 6.15 0 0 1 0 8.6l-11.6 11.9a5.85 5.85 0 0 1-8.4 0l-11.6-11.9a6.15 6.15 0 0 1 0-8.6z" stroke="#3a414a" fill="#fbf0ff"/><use xlink:href="#b" transform="matrix(1,0,0,1,-594.9999999999998,1765.9523809523807) translate(8.83216049382716 19.787777777777777)"/><path d="M-624.2 1765.25a5.85 5.85 0 0 1 8.4 0l11.6 11.9a6.15 6.15 0 0 1 0 8.6l-11.6 11.9a5.85 5.85 0 0 1-8.4 0l-11.6-11.9a6.15 6.15 0 0 1 0-8.6z" stroke="#3a414a" fill="#fbf0ff"/><use xlink:href="#b" transform="matrix(1,0,0,1,-634.9999999999998,1765.9523809523807) translate(8.83216049382716 19.787777777777777)"/><path d="M-504.2 1765.25a5.85 5.85 0 0 1 8.4 0l11.6 11.9a6.15 6.15 0 0 1 0 8.6l-11.6 11.9a5.85 5.85 0 0 1-8.4 0l-11.6-11.9a6.15 6.15 0 0 1 0-8.6z" stroke="#3a414a" fill="#fbf0ff"/><use xlink:href="#e" transform="matrix(1,0,0,1,-514.9999999999998,1765.9523809523807) translate(8.83216049382716 19.787777777777777)"/><path d="M-440 1731.75a6 6 0 0 1 6-6h188a6 6 0 0 1 6 6V1757a6 6 0 0 1-6 6h-188a6 6 0 0 1-6-6z" stroke="#3a414a" stroke-width="3" fill="#ffdda6"/><use xlink:href="#c" transform="matrix(1,0,0,1,-434.9999999999999,1730.7525749318972) translate(56.141975308641975 19.52777777777778)"/><path d="M-240 1731.75a6 6 0 0 1 6-6h188a6 6 0 0 1 6 6V1757a6 6 0 0 1-6 6h-188a6 6 0 0 1-6-6z" stroke="#3a414a" stroke-width="3" fill="#ffdda6"/><use xlink:href="#c" transform="matrix(1,0,0,1,-234.99999999999997,1730.7525749318972) translate(56.141975308641975 19.52777777777778)"/><path d="M-584.2 1805.14a5.85 5.85 0 0 1 8.4 0l11.6 11.9a6.15 6.15 0 0 1 0 8.6l-11.6 11.9a5.85 5.85 0 0 1-8.4 0l-11.6-11.9a6.15 6.15 0 0 1 0-8.6z" stroke="#3a414a" fill="#fbf0ff"/><use xlink:href="#b" transform="matrix(1,0,0,1,-595.0000000000002,1805.8441011497484) translate(8.83216049382716 19.787777777777777)"/><path d="M-624.2 1805.14a5.85 5.85 0 0 1 8.4 0l11.6 11.9a6.15 6.15 0 0 1 0 8.6l-11.6 11.9a5.85 5.85 0 0 1-8.4 0l-11.6-11.9a6.15 6.15 0 0 1 0-8.6z" stroke="#3a414a" fill="#fbf0ff"/><use xlink:href="#b" transform="matrix(1,0,0,1,-635.0000000000002,1805.8441011497484) translate(8.83216049382716 19.787777777777777)"/><path d="M-544.2 1805.14a5.85 5.85 0 0 1 8.4 0l11.6 11.9a6.15 6.15 0 0 1 0 8.6l-11.6 11.9a5.85 5.85 0 0 1-8.4 0l-11.6-11.9a6.15 6.15 0 0 1 0-8.6z" stroke="#3a414a" fill="#fbf0ff"/><use xlink:href="#e" transform="matrix(1,0,0,1,-555.0000000000002,1805.8441011497484) translate(8.83216049382716 19.787777777777777)"/><path d="M-160 1690.5a6 6 0 0 1 6-6H34a6 6 0 0 1 6 6v27a6 6 0 0 1-6 6h-188a6 6 0 0 1-6-6z" stroke="#3a414a" stroke-width="3" fill="#ffdda6"/><use xlink:href="#c" transform="matrix(1,0,0,1,-155.00000000000009,1689.5) translate(56.141975308641975 19.59027777777778)"/><path d="M40 1690.45a6 6 0 0 1 6-6h188a6 6 0 0 1 6 6v27.05a6 6 0 0 1-6 6H46a6 6 0 0 1-6-6z" stroke="#3a414a" stroke-width="3" fill="#ffdda6"/><use xlink:href="#c" transform="matrix(1,0,0,1,44.9999999999998,1689.452380952381) translate(56.141975308641975 19.65277777777778)"/><path d="M-360 1651.45a6 6 0 0 1 6-6h228a6 6 0 0 1 6 6v26.05a6 6 0 0 1-6 6h-228a6 6 0 0 1-6-6z" stroke="#3a414a" stroke-width="3" fill="#fff3d9"/><use xlink:href="#g" transform="matrix(1,0,0,1,-355,1650.4523809523807) translate(76.14197530864197 19.59027777777778)"/><path d="M-624.2 1842.3a5.85 5.85 0 0 1 8.4 0l11.6 11.9a6.15 6.15 0 0 1 0 8.6l-11.6 11.9a5.85 5.85 0 0 1-8.4 0l-11.6-11.9a6.15 6.15 0 0 1 0-8.6z" stroke="#3a414a" fill="#fbf0ff"/><use xlink:href="#b" transform="matrix(1,0,0,1,-635.0000000000002,1843) translate(8.83216049382716 19.787777777777777)"/><path d="M-584.2 1842.3a5.85 5.85 0 0 1 8.4 0l11.6 11.9a6.15 6.15 0 0 1 0 8.6l-11.6 11.9a5.85 5.85 0 0 1-8.4 0l-11.6-11.9a6.15 6.15 0 0 1 0-8.6z" stroke="#3a414a" fill="#fbf0ff"/><use xlink:href="#e" transform="matrix(1,0,0,1,-595.0000000000002,1843) translate(8.83216049382716 19.787777777777777)"/><path d="M-120 1650.5a6 6 0 0 1 6-6H74a6 6 0 0 1 6 6v27a6 6 0 0 1-6 6h-188a6 6 0 0 1-6-6z" stroke="#3a414a" stroke-width="3" fill="#ffdda6"/><use xlink:href="#c" transform="matrix(1,0,0,1,-115.00000000000009,1649.5) translate(56.141975308641975 19.59027777777778)"/><path d="M-320 1610.95a6 6 0 0 1 6-6h228a6 6 0 0 1 6 6V1637a6 6 0 0 1-6 6h-228a6 6 0 0 1-6-6z" stroke="#3a414a" stroke-width="3" fill="#fff3d9"/><use xlink:href="#g" transform="matrix(1,0,0,1,-315,1609.9523809523807) translate(76.14197530864197 19.59027777777778)"/><path d="M-624.2 1882.4a5.85 5.85 0 0 1 8.4 0l11.6 11.92a6.15 6.15 0 0 1 0 8.6l-11.6 11.9a5.85 5.85 0 0 1-8.4 0l-11.6-11.9a6.15 6.15 0 0 1 0-8.6z" stroke="#3a414a" fill="#fbf0ff"/><use xlink:href="#e" transform="matrix(1,0,0,1,-634.9999999999998,1883.119735690413) translate(8.83216049382716 19.787777777777777)"/><path d="M-780 1764a6 6 0 0 1 6-6h128a6 6 0 0 1 6 6v27a6 6 0 0 1-6 6h-128a6 6 0 0 1-6-6z" stroke="#000" stroke-opacity="0" fill="#fff" fill-opacity="0"/><use xlink:href="#h" transform="matrix(1,0,0,1,-774.9999999999998,1763) translate(14.012345679012341 19.65277777777778)"/><path d="M-780 1727.95a6 6 0 0 1 6-6h128a6 6 0 0 1 6 6v27a6 6 0 0 1-6 6h-128a6 6 0 0 1-6-6z" stroke="#000" stroke-opacity="0" fill="#fff" fill-opacity="0"/><use xlink:href="#i" transform="matrix(1,0,0,1,-774.9999999999998,1726.9523809523807) translate(14.012345679012341 19.65277777777778)"/><path d="M-780 1690.5a6 6 0 0 1 6-6h128a6 6 0 0 1 6 6v27a6 6 0 0 1-6 6h-128a6 6 0 0 1-6-6z" stroke="#000" stroke-opacity="0" fill="#fff" fill-opacity="0"/><use xlink:href="#j" transform="matrix(1,0,0,1,-775,1689.5) translate(14.012345679012341 19.65277777777778)"/><path d="M-780 1650.5a6 6 0 0 1 6-6h128a6 6 0 0 1 6 6v27a6 6 0 0 1-6 6h-128a6 6 0 0 1-6-6z" stroke="#000" stroke-opacity="0" fill="#fff" fill-opacity="0"/><use xlink:href="#k" transform="matrix(1,0,0,1,-775,1649.5) translate(14.012345679012341 19.65277777777778)"/><path d="M-780 1610a6 6 0 0 1 6-6h128a6 6 0 0 1 6 6v27a6 6 0 0 1-6 6h-128a6 6 0 0 1-6-6z" stroke="#000" stroke-opacity="0" fill="#fff" fill-opacity="0"/><use xlink:href="#l" transform="matrix(1,0,0,1,-775,1609) translate(33.703703703703695 19.65277777777778)"/><path d="M-240 1426a6 6 0 0 1 6-6h148a6 6 0 0 1 6 6v88a6 6 0 0 1-6 6h-148a6 6 0 0 1-6-6z" stroke="#3a414a" fill="#fff"/><use xlink:href="#m" transform="matrix(1,0,0,1,-235.00000000000009,1425) translate(33.179012345679006 48.71527777777778)"/><path d="M-160 1847.75a6 6 0 0 1 6-6H34a6 6 0 0 1 6 6V1873a6 6 0 0 1-6 6h-188a6 6 0 0 1-6-6z" stroke="#3a414a" stroke-width="3" fill="#ffdda6"/><use xlink:href="#c" transform="matrix(1,0,0,1,-155.00000000000003,1846.7525749318972) translate(56.141975308641975 19.52777777777778)"/><path d="M-544.2 1606.3a5.85 5.85 0 0 1 8.4 0l11.6 11.9a6.15 6.15 0 0 1 0 8.6l-11.6 11.9a5.85 5.85 0 0 1-8.4 0l-11.6-11.9a6.15 6.15 0 0 1 0-8.6z" stroke="#3a414a" fill="#fbf0ff"/><use xlink:href="#b" transform="matrix(1,0,0,1,-555.0000000000002,1607) translate(8.83216049382716 19.787777777777777)"/><path d="M-584.2 1606.3a5.85 5.85 0 0 1 8.4 0l11.6 11.9a6.15 6.15 0 0 1 0 8.6l-11.6 11.9a5.85 5.85 0 0 1-8.4 0l-11.6-11.9a6.15 6.15 0 0 1 0-8.6z" stroke="#3a414a" fill="#fbf0ff"/><use xlink:href="#b" transform="matrix(1,0,0,1,-595.0000000000002,1607) translate(8.83216049382716 19.787777777777777)"/><path d="M-600 1887.87a6 6 0 0 1 6-6h188a6 6 0 0 1 6 6v25.25a6 6 0 0 1-6 6h-188a6 6 0 0 1-6-6z" stroke="#3a414a" stroke-width="3" fill="#ffdda6"/><use xlink:href="#c" transform="matrix(1,0,0,1,-595,1886.8723106223104) translate(56.141975308641975 19.52777777777778)"/><path d="M-624.2 1606.3a5.85 5.85 0 0 1 8.4 0l11.6 11.9a6.15 6.15 0 0 1 0 8.6l-11.6 11.9a5.85 5.85 0 0 1-8.4 0l-11.6-11.9a6.15 6.15 0 0 1 0-8.6z" stroke="#3a414a" fill="#fbf0ff"/><use xlink:href="#b" transform="matrix(1,0,0,1,-635.0000000000002,1607) translate(8.83216049382716 19.787777777777777)"/><path d="M-780 1884.12a6 6 0 0 1 6-6h128a6 6 0 0 1 6 6v29a6 6 0 0 1-6 6h-128a6 6 0 0 1-6-6z" stroke="#000" stroke-opacity="0" fill="#fff" fill-opacity="0"/><use xlink:href="#n" transform="matrix(1,0,0,1,-775,1883.119735690413) translate(1.6666666666666572 19.77777777777778)"/><path d="M-424.2 1606.3a5.85 5.85 0 0 1 8.4 0l11.6 11.9a6.15 6.15 0 0 1 0 8.6l-11.6 11.9a5.85 5.85 0 0 1-8.4 0l-11.6-11.9a6.15 6.15 0 0 1 0-8.6z" stroke="#3a414a" fill="#fbf0ff"/><use xlink:href="#b" transform="matrix(1,0,0,1,-435.0000000000002,1607) translate(8.83216049382716 19.787777777777777)"/><path d="M-464.2 1606.3a5.85 5.85 0 0 1 8.4 0l11.6 11.9a6.15 6.15 0 0 1 0 8.6l-11.6 11.9a5.85 5.85 0 0 1-8.4 0l-11.6-11.9a6.15 6.15 0 0 1 0-8.6z" stroke="#3a414a" fill="#fbf0ff"/><use xlink:href="#b" transform="matrix(1,0,0,1,-475.0000000000002,1607) translate(8.83216049382716 19.787777777777777)"/><path d="M-504.2 1606.3a5.85 5.85 0 0 1 8.4 0l11.6 11.9a6.15 6.15 0 0 1 0 8.6l-11.6 11.9a5.85 5.85 0 0 1-8.4 0l-11.6-11.9a6.15 6.15 0 0 1 0-8.6z" stroke="#3a414a" fill="#fbf0ff"/><use xlink:href="#b" transform="matrix(1,0,0,1,-515.0000000000002,1607) translate(8.83216049382716 19.787777777777777)"/><path d="M-344.2 1606.3a5.85 5.85 0 0 1 8.4 0l11.6 11.9a6.15 6.15 0 0 1 0 8.6l-11.6 11.9a5.85 5.85 0 0 1-8.4 0l-11.6-11.9a6.15 6.15 0 0 1 0-8.6z" stroke="#3a414a" fill="#fbf0ff"/><use xlink:href="#e" transform="matrix(1,0,0,1,-355.0000000000002,1607) translate(8.83216049382716 19.787777777777777)"/><path d="M0 1887.87a6 6 0 0 1 6-6h148a6 6 0 0 1 6 6v25.25a6 6 0 0 1-6 6H6a6 6 0 0 1-6-6z" stroke="#3a414a" stroke-width="3" fill="#fc9432"/><use xlink:href="#f" transform="matrix(1,0,0,1,5,1886.8723106223104) translate(36.141975308641975 19.52777777777778)"/><path d="M-400 1887.87a6 6 0 0 1 6-6h188a6 6 0 0 1 6 6v25.25a6 6 0 0 1-6 6h-188a6 6 0 0 1-6-6z" stroke="#3a414a" stroke-width="3" fill="#ffdda6"/><use xlink:href="#c" transform="matrix(1,0,0,1,-395,1886.8723106223104) translate(56.141975308641975 19.52777777777778)"/><path d="M160 1887.87a6 6 0 0 1 6-6h148a6 6 0 0 1 6 6v25.25a6 6 0 0 1-6 6H166a6 6 0 0 1-6-6z" stroke="#3a414a" stroke-width="3" fill="#fc9432"/><use xlink:href="#f" transform="matrix(1,0,0,1,165,1886.8723106223104) translate(36.141975308641975 19.52777777777778)"/><path d="M320 1887.87a6 6 0 0 1 6-6h148a6 6 0 0 1 6 6v25.25a6 6 0 0 1-6 6H326a6 6 0 0 1-6-6z" stroke="#3a414a" stroke-width="3" fill="#fc9432"/><use xlink:href="#f" transform="matrix(1,0,0,1,325,1886.8723106223104) translate(36.141975308641975 19.52777777777778)"/><path d="M480 1887.87a6 6 0 0 1 6-6h148a6 6 0 0 1 6 6v25.25a6 6 0 0 1-6 6H486a6 6 0 0 1-6-6z" stroke="#3a414a" stroke-width="3" fill="#fc9432"/><use xlink:href="#f" transform="matrix(1,0,0,1,485,1886.8723106223104) translate(36.141975308641975 19.52777777777778)"/><path d="M-200 1887.87a6 6 0 0 1 6-6H-6a6 6 0 0 1 6 6v25.25a6 6 0 0 1-6 6h-188a6 6 0 0 1-6-6z" stroke="#3a414a" stroke-width="3" fill="#ffdda6"/><use xlink:href="#c" transform="matrix(1,0,0,1,-194.99999999999997,1886.8723106223104) translate(56.141975308641975 19.52777777777778)"/><path d="M-384.2 1606.3a5.85 5.85 0 0 1 8.4 0l11.6 11.9a6.15 6.15 0 0 1 0 8.6l-11.6 11.9a5.85 5.85 0 0 1-8.4 0l-11.6-11.9a6.15 6.15 0 0 1 0-8.6z" stroke="#3a414a" fill="#fbf0ff"/><use xlink:href="#b" transform="matrix(1,0,0,1,-395.0000000000002,1607) translate(8.83216049382716 19.787777777777777)"/><path d="M640 1887.87a6 6 0 0 1 6-6h148a6 6 0 0 1 6 6v25.25a6 6 0 0 1-6 6H646a6 6 0 0 1-6-6z" stroke="#3a414a" stroke-width="3" fill="#fc9432"/><use xlink:href="#f" transform="matrix(1,0,0,1,645,1886.8723106223104) translate(36.141975308641975 19.52777777777778)"/><path d="M-840 1604a6 6 0 0 1 6-6h28a6 6 0 0 1 6 6v290a6 6 0 0 1-6 6h-28a6 6 0 0 1-6-6z" fill="none"/><path d="M-800 1900c-5.52 0-10-4.48-10-10v-131c0-5.52-4.48-10-10-10 5.52 0 10-4.48 10-10v-131c0-5.52 4.48-10 10-10" stroke="#3a414a" stroke-width="3" fill="none"/><path d="M-1060 1696.67a6 6 0 0 1 6-6h228a6 6 0 0 1 6 6v104.66a6 6 0 0 1-6 6h-228a6 6 0 0 1-6-6z" stroke="#000" stroke-opacity="0" fill="#fff" fill-opacity="0"/><use xlink:href="#o" transform="matrix(1,0,0,1,-1054.9999999999995,1695.6666666666665) translate(68.76543209876543 21.12152777777778)"/><use xlink:href="#p" transform="matrix(1,0,0,1,-1054.9999999999995,1695.6666666666665) translate(9.66049382716048 47.78819444444444)"/><use xlink:href="#q" transform="matrix(1,0,0,1,-1054.9999999999995,1695.6666666666665) translate(73.73456790123454 47.78819444444444)"/><use xlink:href="#r" transform="matrix(1,0,0,1,-1054.9999999999995,1695.6666666666665) translate(111.94444444444443 47.78819444444444)"/><use xlink:href="#s" transform="matrix(1,0,0,1,-1054.9999999999995,1695.6666666666665) translate(130.46296296296293 47.78819444444444)"/><use xlink:href="#t" transform="matrix(1,0,0,1,-1054.9999999999995,1695.6666666666665) translate(23.117283950617292 74.45486111111111)"/><use xlink:href="#u" transform="matrix(1,0,0,1,-1054.9999999999995,1695.6666666666665) translate(94.6604938271605 74.45486111111111)"/><use xlink:href="#v" transform="matrix(1,0,0,1,-1054.9999999999995,1695.6666666666665) translate(125.52469135802468 74.45486111111111)"/><use xlink:href="#w" transform="matrix(1,0,0,1,-1054.9999999999995,1695.6666666666665) translate(40.46296296296295 101.12152777777777)"/><use xlink:href="#x" transform="matrix(1,0,0,1,-1054.9999999999995,1695.6666666666665) translate(99.59876543209876 101.12152777777777)"/><defs><path fill="#3a414a" d="M126-127c33 6 58 20 58 59 0 88-139 92-164 29-3-8-5-16-6-25l32-3c6 27 21 44 54 44 32 0 52-15 52-46 0-38-36-46-79-43v-28c39 1 72-4 72-42 0-27-17-43-46-43-28 0-47 15-49 41l-32-3c6-42 35-63 81-64 48-1 79 21 79 65 0 36-21 52-52 59" id="y"/><path fill="#3a414a" d="M118-107v75H92v-75H18v-26h74v-75h26v75h74v26h-74" id="z"/><path fill="#3a414a" d="M110-160c48 1 74 30 74 79 0 53-28 85-80 85-65 0-83-55-86-122-5-90 50-162 133-122 14 7 22 21 27 39l-31 6c-5-40-67-38-82-6-9 19-15 44-15 74 11-20 30-34 60-33zm-7 138c34 0 49-23 49-58s-16-56-50-56c-29 0-50 16-49 49 1 36 15 65 50 65" id="A"/><path fill="#3a414a" d="M80-196l47-18 7 23-49 13 32 44-20 13-27-46-27 45-21-12 33-44-49-13 8-23 47 19-2-53h23" id="B"/><path fill="#3a414a" d="M16-82v-28h88v28H16" id="C"/><path fill="#3a414a" d="M134-131c28 9 52 24 51 62-1 50-34 73-85 73S17-19 16-69c0-36 21-54 49-61-75-25-45-126 34-121 46 3 78 18 79 63 0 33-17 51-44 57zm-34-11c31 1 46-15 46-44 0-28-17-43-47-42-29 0-46 13-45 42 1 28 16 44 46 44zm1 122c35 0 51-18 51-52 0-30-18-46-53-46-33 0-51 17-51 47 0 34 19 51 53 51" id="D"/><path fill="#3a414a" d="M18-150v-26h174v26H18zm0 90v-26h174v26H18" id="E"/><path fill="#3a414a" d="M27 0v-27h64v-190l-56 39v-29l58-41h29v221h61V0H27" id="F"/><g id="a"><use transform="matrix(0.06172839506172839,0,0,0.06172839506172839,0,0)" xlink:href="#y"/><use transform="matrix(0.06172839506172839,0,0,0.06172839506172839,12.345679012345679,0)" xlink:href="#z"/><use transform="matrix(0.06172839506172839,0,0,0.06172839506172839,25.30864197530864,0)" xlink:href="#A"/><use transform="matrix(0.06172839506172839,0,0,0.06172839506172839,37.654320987654316,0)" xlink:href="#B"/><use transform="matrix(0.06172839506172839,0,0,0.06172839506172839,46.29629629629629,0)" xlink:href="#A"/><use transform="matrix(0.06172839506172839,0,0,0.06172839506172839,58.64197530864197,0)" xlink:href="#C"/><use transform="matrix(0.06172839506172839,0,0,0.06172839506172839,65.98765432098764,0)" xlink:href="#D"/><use transform="matrix(0.06172839506172839,0,0,0.06172839506172839,78.33333333333333,0)" xlink:href="#E"/><use transform="matrix(0.06172839506172839,0,0,0.06172839506172839,91.29629629629629,0)" xlink:href="#y"/><use transform="matrix(0.06172839506172839,0,0,0.06172839506172839,103.64197530864197,0)" xlink:href="#F"/></g><path fill="#3a414a" d="M101-251c68 0 85 55 85 127S166 4 100 4C33 4 14-52 14-124c0-73 17-127 87-127zm-1 229c47 0 54-49 54-102s-4-102-53-102c-51 0-55 48-55 102 0 53 5 102 54 102" id="G"/><use transform="matrix(0.06172839506172839,0,0,0.06172839506172839,0,0)" xlink:href="#G" id="b"/><path fill="#3a414a" d="M115-194c53 0 69 39 70 98 0 66-23 100-70 100C84 3 66-7 56-30L54 0H23l1-261h32v101c10-23 28-34 59-34zm-8 174c40 0 45-34 45-75 0-40-5-75-45-74-42 0-51 32-51 76 0 43 10 73 51 73" id="H"/><path fill="#3a414a" d="M84 4C-5 8 30-112 23-190h32v120c0 31 7 50 39 49 72-2 45-101 50-169h31l1 190h-30c-1-10 1-25-2-33-11 22-28 36-60 37" id="I"/><path fill="#3a414a" d="M33-154v-36h34v36H33zM33 0v-36h34V0H33" id="J"/><path fill="#3a414a" d="M54-142c48-35 137-8 131 61C196 18 31 33 14-55l32-4c7 23 22 37 52 37 35-1 51-22 54-58 4-55-73-65-99-34H22l8-134h141v27H59" id="K"/><path fill="#3a414a" d="M24-231v-30h32v30H24zM24 0v-190h32V0H24" id="L"/><path fill="#3a414a" d="M59-47c-2 24 18 29 38 22v24C64 9 27 4 27-40v-127H5v-23h24l9-43h21v43h35v23H59v120" id="M"/><path fill="#3a414a" d="M135-143c-3-34-86-38-87 0 15 53 115 12 119 90S17 21 10-45l28-5c4 36 97 45 98 0-10-56-113-15-118-90-4-57 82-63 122-42 12 7 21 19 24 35" id="N"/><g id="c"><use transform="matrix(0.06172839506172839,0,0,0.06172839506172839,0,0)" xlink:href="#H"/><use transform="matrix(0.06172839506172839,0,0,0.06172839506172839,12.345679012345679,0)" xlink:href="#I"/><use transform="matrix(0.06172839506172839,0,0,0.06172839506172839,24.691358024691358,0)" xlink:href="#J"/><use transform="matrix(0.06172839506172839,0,0,0.06172839506172839,30.864197530864196,0)" xlink:href="#K"/><use transform="matrix(0.06172839506172839,0,0,0.06172839506172839,43.20987654320987,0)" xlink:href="#H"/><use transform="matrix(0.06172839506172839,0,0,0.06172839506172839,55.55555555555555,0)" xlink:href="#L"/><use transform="matrix(0.06172839506172839,0,0,0.06172839506172839,60.432098765432094,0)" xlink:href="#M"/><use transform="matrix(0.06172839506172839,0,0,0.06172839506172839,66.60493827160494,0)" xlink:href="#N"/></g><path fill="#3a414a" d="M101-251c82-7 93 87 43 132L82-64C71-53 59-42 53-27h129V0H18c2-99 128-94 128-182 0-28-16-43-45-43s-46 15-49 41l-32-3c6-41 34-60 81-64" id="O"/><path fill="#3a414a" d="M64 0c3-98 48-159 88-221H18v-27h164v26C143-157 98-101 97 0H64" id="P"/><g id="d"><use transform="matrix(0.06172839506172839,0,0,0.06172839506172839,0,0)" xlink:href="#O"/><use transform="matrix(0.06172839506172839,0,0,0.06172839506172839,12.345679012345679,0)" xlink:href="#z"/><use transform="matrix(0.06172839506172839,0,0,0.06172839506172839,25.30864197530864,0)" xlink:href="#A"/><use transform="matrix(0.06172839506172839,0,0,0.06172839506172839,37.654320987654316,0)" xlink:href="#B"/><use transform="matrix(0.06172839506172839,0,0,0.06172839506172839,46.29629629629629,0)" xlink:href="#P"/><use transform="matrix(0.06172839506172839,0,0,0.06172839506172839,58.64197530864197,0)" xlink:href="#C"/><use transform="matrix(0.06172839506172839,0,0,0.06172839506172839,65.98765432098764,0)" xlink:href="#F"/><use transform="matrix(0.06172839506172839,0,0,0.06172839506172839,76.66666666666666,0)" xlink:href="#F"/><use transform="matrix(0.06172839506172839,0,0,0.06172839506172839,89.01234567901234,0)" xlink:href="#E"/><use transform="matrix(0.06172839506172839,0,0,0.06172839506172839,101.9753086419753,0)" xlink:href="#y"/><use transform="matrix(0.06172839506172839,0,0,0.06172839506172839,114.32098765432099,0)" xlink:href="#y"/></g><use transform="matrix(0.06172839506172839,0,0,0.06172839506172839,0,0)" xlink:href="#F" id="e"/><path fill="#3a414a" d="M155-56V0h-30v-56H8v-25l114-167h33v167h35v25h-35zm-30-156c-27 46-58 90-88 131h88v-131" id="Q"/><g id="f"><use transform="matrix(0.06172839506172839,0,0,0.06172839506172839,0,0)" xlink:href="#H"/><use transform="matrix(0.06172839506172839,0,0,0.06172839506172839,12.345679012345679,0)" xlink:href="#I"/><use transform="matrix(0.06172839506172839,0,0,0.06172839506172839,24.691358024691358,0)" xlink:href="#J"/><use transform="matrix(0.06172839506172839,0,0,0.06172839506172839,30.864197530864196,0)" xlink:href="#Q"/><use transform="matrix(0.06172839506172839,0,0,0.06172839506172839,43.20987654320987,0)" xlink:href="#H"/><use transform="matrix(0.06172839506172839,0,0,0.06172839506172839,55.55555555555555,0)" xlink:href="#L"/><use transform="matrix(0.06172839506172839,0,0,0.06172839506172839,60.432098765432094,0)" xlink:href="#M"/><use transform="matrix(0.06172839506172839,0,0,0.06172839506172839,66.60493827160494,0)" xlink:href="#N"/></g><g id="g"><use transform="matrix(0.06172839506172839,0,0,0.06172839506172839,0,0)" xlink:href="#H"/><use transform="matrix(0.06172839506172839,0,0,0.06172839506172839,12.345679012345679,0)" xlink:href="#I"/><use transform="matrix(0.06172839506172839,0,0,0.06172839506172839,24.691358024691358,0)" xlink:href="#J"/><use transform="matrix(0.06172839506172839,0,0,0.06172839506172839,30.864197530864196,0)" xlink:href="#A"/><use transform="matrix(0.06172839506172839,0,0,0.06172839506172839,43.20987654320987,0)" xlink:href="#H"/><use transform="matrix(0.06172839506172839,0,0,0.06172839506172839,55.55555555555555,0)" xlink:href="#L"/><use transform="matrix(0.06172839506172839,0,0,0.06172839506172839,60.432098765432094,0)" xlink:href="#M"/><use transform="matrix(0.06172839506172839,0,0,0.06172839506172839,66.60493827160494,0)" xlink:href="#N"/></g><g id="h"><use transform="matrix(0.06172839506172839,0,0,0.06172839506172839,0,0)" xlink:href="#Q"/><use transform="matrix(0.06172839506172839,0,0,0.06172839506172839,12.345679012345679,0)" xlink:href="#z"/><use transform="matrix(0.06172839506172839,0,0,0.06172839506172839,25.30864197530864,0)" xlink:href="#A"/><use transform="matrix(0.06172839506172839,0,0,0.06172839506172839,37.654320987654316,0)" xlink:href="#B"/><use transform="matrix(0.06172839506172839,0,0,0.06172839506172839,46.29629629629629,0)" xlink:href="#K"/><use transform="matrix(0.06172839506172839,0,0,0.06172839506172839,58.64197530864197,0)" xlink:href="#C"/><use transform="matrix(0.06172839506172839,0,0,0.06172839506172839,65.98765432098764,0)" xlink:href="#A"/><use transform="matrix(0.06172839506172839,0,0,0.06172839506172839,78.33333333333333,0)" xlink:href="#E"/><use transform="matrix(0.06172839506172839,0,0,0.06172839506172839,91.29629629629629,0)" xlink:href="#O"/><use transform="matrix(0.06172839506172839,0,0,0.06172839506172839,103.64197530864197,0)" xlink:href="#D"/></g><g id="i"><use transform="matrix(0.06172839506172839,0,0,0.06172839506172839,0,0)" xlink:href="#K"/><use transform="matrix(0.06172839506172839,0,0,0.06172839506172839,12.345679012345679,0)" xlink:href="#z"/><use transform="matrix(0.06172839506172839,0,0,0.06172839506172839,25.30864197530864,0)" xlink:href="#A"/><use transform="matrix(0.06172839506172839,0,0,0.06172839506172839,37.654320987654316,0)" xlink:href="#B"/><use transform="matrix(0.06172839506172839,0,0,0.06172839506172839,46.29629629629629,0)" xlink:href="#Q"/><use transform="matrix(0.06172839506172839,0,0,0.06172839506172839,58.64197530864197,0)" xlink:href="#C"/><use transform="matrix(0.06172839506172839,0,0,0.06172839506172839,65.98765432098764,0)" xlink:href="#Q"/><use transform="matrix(0.06172839506172839,0,0,0.06172839506172839,78.33333333333333,0)" xlink:href="#E"/><use transform="matrix(0.06172839506172839,0,0,0.06172839506172839,91.29629629629629,0)" xlink:href="#O"/><use transform="matrix(0.06172839506172839,0,0,0.06172839506172839,103.64197530864197,0)" xlink:href="#K"/></g><g id="j"><use transform="matrix(0.06172839506172839,0,0,0.06172839506172839,0,0)" xlink:href="#A"/><use transform="matrix(0.06172839506172839,0,0,0.06172839506172839,12.345679012345679,0)" xlink:href="#z"/><use transform="matrix(0.06172839506172839,0,0,0.06172839506172839,25.30864197530864,0)" xlink:href="#A"/><use transform="matrix(0.06172839506172839,0,0,0.06172839506172839,37.654320987654316,0)" xlink:href="#B"/><use transform="matrix(0.06172839506172839,0,0,0.06172839506172839,46.29629629629629,0)" xlink:href="#y"/><use transform="matrix(0.06172839506172839,0,0,0.06172839506172839,58.64197530864197,0)" xlink:href="#C"/><use transform="matrix(0.06172839506172839,0,0,0.06172839506172839,65.98765432098764,0)" xlink:href="#O"/><use transform="matrix(0.06172839506172839,0,0,0.06172839506172839,78.33333333333333,0)" xlink:href="#E"/><use transform="matrix(0.06172839506172839,0,0,0.06172839506172839,91.29629629629629,0)" xlink:href="#O"/><use transform="matrix(0.06172839506172839,0,0,0.06172839506172839,103.64197530864197,0)" xlink:href="#O"/></g><g id="k"><use transform="matrix(0.06172839506172839,0,0,0.06172839506172839,0,0)" xlink:href="#P"/><use transform="matrix(0.06172839506172839,0,0,0.06172839506172839,12.345679012345679,0)" xlink:href="#z"/><use transform="matrix(0.06172839506172839,0,0,0.06172839506172839,25.30864197530864,0)" xlink:href="#A"/><use transform="matrix(0.06172839506172839,0,0,0.06172839506172839,37.654320987654316,0)" xlink:href="#B"/><use transform="matrix(0.06172839506172839,0,0,0.06172839506172839,46.29629629629629,0)" xlink:href="#O"/><use transform="matrix(0.06172839506172839,0,0,0.06172839506172839,58.64197530864197,0)" xlink:href="#C"/><use transform="matrix(0.06172839506172839,0,0,0.06172839506172839,65.98765432098764,0)" xlink:href="#F"/><use transform="matrix(0.06172839506172839,0,0,0.06172839506172839,78.33333333333333,0)" xlink:href="#E"/><use transform="matrix(0.06172839506172839,0,0,0.06172839506172839,91.29629629629629,0)" xlink:href="#F"/><use transform="matrix(0.06172839506172839,0,0,0.06172839506172839,103.64197530864197,0)" xlink:href="#D"/></g><g id="l"><use transform="matrix(0.06172839506172839,0,0,0.06172839506172839,0,0)" xlink:href="#D"/><use transform="matrix(0.06172839506172839,0,0,0.06172839506172839,12.345679012345679,0)" xlink:href="#z"/><use transform="matrix(0.06172839506172839,0,0,0.06172839506172839,25.30864197530864,0)" xlink:href="#A"/><use transform="matrix(0.06172839506172839,0,0,0.06172839506172839,37.654320987654316,0)" xlink:href="#B"/><use transform="matrix(0.06172839506172839,0,0,0.06172839506172839,46.29629629629629,0)" xlink:href="#F"/><use transform="matrix(0.06172839506172839,0,0,0.06172839506172839,58.64197530864197,0)" xlink:href="#E"/><use transform="matrix(0.06172839506172839,0,0,0.06172839506172839,71.60493827160494,0)" xlink:href="#F"/><use transform="matrix(0.06172839506172839,0,0,0.06172839506172839,83.95061728395062,0)" xlink:href="#Q"/></g><path fill="#3a414a" d="M212-179c-10-28-35-45-73-45-59 0-87 40-87 99 0 60 29 101 89 101 43 0 62-24 78-52l27 14C228-24 195 4 139 4 59 4 22-46 18-125c-6-104 99-153 187-111 19 9 31 26 39 46" id="R"/><path fill="#3a414a" d="M100-194c62-1 85 37 85 99 1 63-27 99-86 99S16-35 15-95c0-66 28-99 85-99zM99-20c44 1 53-31 53-75 0-43-8-75-51-75s-53 32-53 75 10 74 51 75" id="S"/><path fill="#3a414a" d="M24 0v-261h32V0H24" id="T"/><path fill="#3a414a" d="M117-194c89-4 53 116 60 194h-32v-121c0-31-8-49-39-48C34-167 62-67 57 0H25l-1-190h30c1 10-1 24 2 32 11-22 29-35 61-36" id="U"/><g id="m"><use transform="matrix(0.06172839506172839,0,0,0.06172839506172839,0,0)" xlink:href="#R"/><use transform="matrix(0.06172839506172839,0,0,0.06172839506172839,15.987654320987653,0)" xlink:href="#S"/><use transform="matrix(0.06172839506172839,0,0,0.06172839506172839,28.333333333333332,0)" xlink:href="#T"/><use transform="matrix(0.06172839506172839,0,0,0.06172839506172839,33.20987654320987,0)" xlink:href="#T"/><use transform="matrix(0.06172839506172839,0,0,0.06172839506172839,38.08641975308642,0)" xlink:href="#L"/><use transform="matrix(0.06172839506172839,0,0,0.06172839506172839,42.96296296296296,0)" xlink:href="#N"/><use transform="matrix(0.06172839506172839,0,0,0.06172839506172839,54.074074074074076,0)" xlink:href="#L"/><use transform="matrix(0.06172839506172839,0,0,0.06172839506172839,58.95061728395062,0)" xlink:href="#S"/><use transform="matrix(0.06172839506172839,0,0,0.06172839506172839,71.2962962962963,0)" xlink:href="#U"/></g><g id="n"><use transform="matrix(0.06172839506172839,0,0,0.06172839506172839,0,0)" xlink:href="#F"/><use transform="matrix(0.06172839506172839,0,0,0.06172839506172839,12.345679012345679,0)" xlink:href="#z"/><use transform="matrix(0.06172839506172839,0,0,0.06172839506172839,25.30864197530864,0)" xlink:href="#A"/><use transform="matrix(0.06172839506172839,0,0,0.06172839506172839,37.654320987654316,0)" xlink:href="#B"/><use transform="matrix(0.06172839506172839,0,0,0.06172839506172839,46.29629629629629,0)" xlink:href="#D"/><use transform="matrix(0.06172839506172839,0,0,0.06172839506172839,58.64197530864197,0)" xlink:href="#C"/><use transform="matrix(0.06172839506172839,0,0,0.06172839506172839,65.98765432098764,0)" xlink:href="#F"/><use transform="matrix(0.06172839506172839,0,0,0.06172839506172839,78.33333333333333,0)" xlink:href="#y"/><use transform="matrix(0.06172839506172839,0,0,0.06172839506172839,90.67901234567901,0)" xlink:href="#E"/><use transform="matrix(0.06172839506172839,0,0,0.06172839506172839,103.64197530864197,0)" xlink:href="#y"/><use transform="matrix(0.06172839506172839,0,0,0.06172839506172839,115.98765432098766,0)" xlink:href="#A"/></g><path fill="#3a414a" d="M30 0v-248h187v28H63v79h144v27H63v87h162V0H30" id="V"/><path fill="#3a414a" d="M141 0L90-78 38 0H4l68-98-65-92h35l48 74 47-74h35l-64 92 68 98h-35" id="W"/><path fill="#3a414a" d="M141-36C126-15 110 5 73 4 37 3 15-17 15-53c-1-64 63-63 125-63 3-35-9-54-41-54-24 1-41 7-42 31l-33-3c5-37 33-52 76-52 45 0 72 20 72 64v82c-1 20 7 32 28 27v20c-31 9-61-2-59-35zM48-53c0 20 12 33 32 33 41-3 63-29 60-74-43 2-92-5-92 41" id="X"/><path fill="#3a414a" d="M210-169c-67 3-38 105-44 169h-31v-121c0-29-5-50-35-48C34-165 62-65 56 0H25l-1-190h30c1 10-1 24 2 32 10-44 99-50 107 0 11-21 27-35 58-36 85-2 47 119 55 194h-31v-121c0-29-5-49-35-48" id="Y"/><path fill="#3a414a" d="M115-194c55 1 70 41 70 98S169 2 115 4C84 4 66-9 55-30l1 105H24l-1-265h31l2 30c10-21 28-34 59-34zm-8 174c40 0 45-34 45-75s-6-73-45-74c-42 0-51 32-51 76 0 43 10 73 51 73" id="Z"/><path fill="#3a414a" d="M100-194c63 0 86 42 84 106H49c0 40 14 67 53 68 26 1 43-12 49-29l28 8c-11 28-37 45-77 45C44 4 14-33 15-96c1-61 26-98 85-98zm52 81c6-60-76-77-97-28-3 7-6 17-6 28h103" id="aa"/><g id="o"><use transform="matrix(0.06172839506172839,0,0,0.06172839506172839,0,0)" xlink:href="#V"/><use transform="matrix(0.06172839506172839,0,0,0.06172839506172839,14.814814814814813,0)" xlink:href="#W"/><use transform="matrix(0.06172839506172839,0,0,0.06172839506172839,25.925925925925924,0)" xlink:href="#X"/><use transform="matrix(0.06172839506172839,0,0,0.06172839506172839,38.2716049382716,0)" xlink:href="#Y"/><use transform="matrix(0.06172839506172839,0,0,0.06172839506172839,56.72839506172839,0)" xlink:href="#Z"/><use transform="matrix(0.06172839506172839,0,0,0.06172839506172839,69.07407407407408,0)" xlink:href="#T"/><use transform="matrix(0.06172839506172839,0,0,0.06172839506172839,73.95061728395062,0)" xlink:href="#aa"/><use transform="matrix(0.06172839506172839,0,0,0.06172839506172839,86.2962962962963,0)" xlink:href="#J"/></g><path fill="#3a414a" d="M127-220V0H93v-220H8v-28h204v28h-85" id="ab"/><path fill="#3a414a" d="M106-169C34-169 62-67 57 0H25v-261h32l-1 103c12-21 28-36 61-36 89 0 53 116 60 194h-32v-121c2-32-8-49-39-48" id="ac"/><path fill="#3a414a" d="M114-163C36-179 61-72 57 0H25l-1-190h30c1 12-1 29 2 39 6-27 23-49 58-41v29" id="ad"/><g id="p"><use transform="matrix(0.06172839506172839,0,0,0.06172839506172839,0,0)" xlink:href="#ab"/><use transform="matrix(0.06172839506172839,0,0,0.06172839506172839,13.518518518518517,0)" xlink:href="#ac"/><use transform="matrix(0.06172839506172839,0,0,0.06172839506172839,25.864197530864196,0)" xlink:href="#aa"/><use transform="matrix(0.06172839506172839,0,0,0.06172839506172839,38.20987654320987,0)" xlink:href="#ad"/><use transform="matrix(0.06172839506172839,0,0,0.06172839506172839,45.55555555555555,0)" xlink:href="#aa"/></g><g id="q"><use transform="matrix(0.06172839506172839,0,0,0.06172839506172839,0,0)" xlink:href="#X"/><use transform="matrix(0.06172839506172839,0,0,0.06172839506172839,12.345679012345679,0)" xlink:href="#ad"/><use transform="matrix(0.06172839506172839,0,0,0.06172839506172839,19.691358024691358,0)" xlink:href="#aa"/></g><use transform="matrix(0.06172839506172839,0,0,0.06172839506172839,0,0)" xlink:href="#D" id="r"/><path fill="#3a414a" d="M96-169c-40 0-48 33-48 73s9 75 48 75c24 0 41-14 43-38l32 2c-6 37-31 61-74 61-59 0-76-41-82-99-10-93 101-131 147-64 4 7 5 14 7 22l-32 3c-4-21-16-35-41-35" id="ae"/><g id="s"><use transform="matrix(0.06172839506172839,0,0,0.06172839506172839,0,0)" xlink:href="#ae"/><use transform="matrix(0.06172839506172839,0,0,0.06172839506172839,11.11111111111111,0)" xlink:href="#S"/><use transform="matrix(0.06172839506172839,0,0,0.06172839506172839,23.45679012345679,0)" xlink:href="#T"/><use transform="matrix(0.06172839506172839,0,0,0.06172839506172839,28.333333333333336,0)" xlink:href="#T"/><use transform="matrix(0.06172839506172839,0,0,0.06172839506172839,33.20987654320988,0)" xlink:href="#L"/><use transform="matrix(0.06172839506172839,0,0,0.06172839506172839,38.086419753086425,0)" xlink:href="#N"/><use transform="matrix(0.06172839506172839,0,0,0.06172839506172839,49.19753086419753,0)" xlink:href="#L"/><use transform="matrix(0.06172839506172839,0,0,0.06172839506172839,54.074074074074076,0)" xlink:href="#S"/><use transform="matrix(0.06172839506172839,0,0,0.06172839506172839,66.41975308641976,0)" xlink:href="#U"/><use transform="matrix(0.06172839506172839,0,0,0.06172839506172839,78.76543209876544,0)" xlink:href="#N"/></g><g id="t"><use transform="matrix(0.06172839506172839,0,0,0.06172839506172839,0,0)" xlink:href="#X"/><use transform="matrix(0.06172839506172839,0,0,0.06172839506172839,12.345679012345679,0)" xlink:href="#ae"/><use transform="matrix(0.06172839506172839,0,0,0.06172839506172839,23.45679012345679,0)" xlink:href="#ad"/><use transform="matrix(0.06172839506172839,0,0,0.06172839506172839,30.80246913580247,0)" xlink:href="#S"/><use transform="matrix(0.06172839506172839,0,0,0.06172839506172839,43.148148148148145,0)" xlink:href="#N"/><use transform="matrix(0.06172839506172839,0,0,0.06172839506172839,54.25925925925925,0)" xlink:href="#N"/></g><g id="u"><use transform="matrix(0.06172839506172839,0,0,0.06172839506172839,0,0)" xlink:href="#K"/><use transform="matrix(0.06172839506172839,0,0,0.06172839506172839,12.345679012345679,0)" xlink:href="#A"/></g><g id="v"><use transform="matrix(0.06172839506172839,0,0,0.06172839506172839,0,0)" xlink:href="#Z"/><use transform="matrix(0.06172839506172839,0,0,0.06172839506172839,12.345679012345679,0)" xlink:href="#S"/><use transform="matrix(0.06172839506172839,0,0,0.06172839506172839,24.691358024691358,0)" xlink:href="#N"/><use transform="matrix(0.06172839506172839,0,0,0.06172839506172839,35.80246913580247,0)" xlink:href="#N"/><use transform="matrix(0.06172839506172839,0,0,0.06172839506172839,46.91358024691358,0)" xlink:href="#L"/><use transform="matrix(0.06172839506172839,0,0,0.06172839506172839,51.79012345679013,0)" xlink:href="#H"/><use transform="matrix(0.06172839506172839,0,0,0.06172839506172839,64.13580246913581,0)" xlink:href="#T"/><use transform="matrix(0.06172839506172839,0,0,0.06172839506172839,69.01234567901236,0)" xlink:href="#aa"/></g><g id="w"><use transform="matrix(0.06172839506172839,0,0,0.06172839506172839,0,0)" xlink:href="#Z"/><use transform="matrix(0.06172839506172839,0,0,0.06172839506172839,12.345679012345679,0)" xlink:href="#X"/><use transform="matrix(0.06172839506172839,0,0,0.06172839506172839,24.691358024691358,0)" xlink:href="#T"/><use transform="matrix(0.06172839506172839,0,0,0.06172839506172839,29.5679012345679,0)" xlink:href="#T"/><use transform="matrix(0.06172839506172839,0,0,0.06172839506172839,34.44444444444444,0)" xlink:href="#aa"/><use transform="matrix(0.06172839506172839,0,0,0.06172839506172839,46.79012345679012,0)" xlink:href="#M"/></g><g id="x"><use transform="matrix(0.06172839506172839,0,0,0.06172839506172839,0,0)" xlink:href="#Z"/><use transform="matrix(0.06172839506172839,0,0,0.06172839506172839,12.345679012345679,0)" xlink:href="#X"/><use transform="matrix(0.06172839506172839,0,0,0.06172839506172839,24.691358024691358,0)" xlink:href="#ad"/><use transform="matrix(0.06172839506172839,0,0,0.06172839506172839,32.03703703703704,0)" xlink:href="#M"/><use transform="matrix(0.06172839506172839,0,0,0.06172839506172839,38.20987654320988,0)" xlink:href="#L"/><use transform="matrix(0.06172839506172839,0,0,0.06172839506172839,43.086419753086425,0)" xlink:href="#M"/><use transform="matrix(0.06172839506172839,0,0,0.06172839506172839,49.25925925925927,0)" xlink:href="#L"/><use transform="matrix(0.06172839506172839,0,0,0.06172839506172839,54.13580246913581,0)" xlink:href="#S"/><use transform="matrix(0.06172839506172839,0,0,0.06172839506172839,66.4814814814815,0)" xlink:href="#U"/><use transform="matrix(0.06172839506172839,0,0,0.06172839506172839,78.82716049382718,0)" xlink:href="#N"/></g></defs></g></svg>